AtkinsonHyperlegibleMono-ExtraBoldItalic.sfdir
StartChar: exclam
Encoding: 33 33 254
Width: 632
GlyphClass: 1
Flags: W
LayerCount: 2
Fore
SplineSet
280 495 m 1,0,-1
 317 668 l 1,1,-1
 493 668 l 1,2,-1
 456 495 l 1,3,-1
 372 251 l 1,4,-1
 261 251 l 1,5,-1
 280 495 l 1,0,-1
209.5 18.5 m 128,-1,7
 179 49 179 49 179 91 c 0,8,9
 179 134 179 134 209.5 164.5 c 128,-1,10
 240 195 240 195 283 195 c 256,11,12
 326 195 326 195 356 164.5 c 128,-1,13
 386 134 386 134 386 91 c 0,14,15
 386 49 386 49 356 18.5 c 128,-1,16
 326 -12 326 -12 283 -12 c 256,17,6
 240 -12 240 -12 209.5 18.5 c 128,-1,7
EndSplineSet
EndChar
StartChar: quotedbl
Encoding: 34 34 284
Width: 632
GlyphClass: 1
Flags: W
LayerCount: 2
Fore
SplineSet
210 668 m 1,0,-1
 371 668 l 1,1,-1
 304 420 l 1,2,-1
 173 420 l 1,3,-1
 210 668 l 1,0,-1
439 668 m 1,4,-1
 600 668 l 1,5,-1
 533 420 l 1,6,-1
 402 420 l 1,7,-1
 439 668 l 1,4,-1
EndSplineSet
EndChar
StartChar: numbersign
Encoding: 35 35 261
Width: 632
GlyphClass: 1
Flags: W
LayerCount: 2
Fore
SplineSet
74 144 m 1,0,-1
 -1 144 l 1,1,-1
 45 285 l 1,2,-1
 117 285 l 1,3,-1
 149 383 l 1,4,-1
 75 383 l 1,5,-1
 121 524 l 1,6,-1
 194 524 l 1,7,-1
 242 668 l 1,8,-1
 393 668 l 1,9,-1
 346 524 l 1,10,-1
 443 524 l 1,11,-1
 490 668 l 1,12,-1
 642 668 l 1,13,-1
 594 524 l 1,14,-1
 669 524 l 1,15,-1
 623 383 l 1,16,-1
 551 383 l 1,17,-1
 519 285 l 1,18,-1
 593 285 l 1,19,-1
 547 144 l 1,20,-1
 474 144 l 1,21,-1
 426 0 l 1,22,-1
 275 0 l 1,23,-1
 323 144 l 1,24,-1
 225 144 l 1,25,-1
 178 0 l 1,26,-1
 26 0 l 1,27,-1
 74 144 l 1,0,-1
368 285 m 1,28,-1
 400 383 l 1,29,-1
 300 383 l 1,30,-1
 268 285 l 1,31,-1
 368 285 l 1,28,-1
EndSplineSet
EndChar
StartChar: dollar
Encoding: 36 36 304
Width: 632
GlyphClass: 1
Flags: W
LayerCount: 2
Fore
SplineSet
101.5 50 m 128,-1,1
 49 92 49 92 30 163 c 1,2,-1
 181 216 l 1,3,4
 185 186 185 186 205 164 c 128,-1,5
 225 142 225 142 255 130 c 1,6,-1
 287 282 l 1,7,-1
 256 292 l 2,8,9
 99 344 99 344 99 464 c 0,10,11
 99 525 99 525 136 573.5 c 128,-1,12
 173 622 173 622 235.5 650.5 c 128,-1,13
 298 679 298 679 371 680 c 1,14,-1
 388 758 l 1,15,-1
 461 758 l 1,16,-1
 443 674 l 1,17,18
 509 661 509 661 557.5 624 c 128,-1,19
 606 587 606 587 625 528 c 1,20,-1
 476 476 l 1,21,22
 462 520 462 520 414 538 c 1,23,-1
 385 401 l 1,24,-1
 401 396 l 2,25,26
 497 366 497 366 541 324 c 128,-1,27
 585 282 585 282 585 216 c 0,28,29
 585 151 585 151 545.5 99 c 128,-1,30
 506 47 506 47 440 18 c 128,-1,31
 374 -11 374 -11 298 -12 c 1,32,-1
 281 -90 l 1,33,-1
 208 -90 l 1,34,-1
 226 -6 l 1,35,0
 154 8 154 8 101.5 50 c 128,-1,1
391 141 m 128,-1,37
 416 161 416 161 416 194 c 0,38,39
 416 216 416 216 401.5 231 c 128,-1,40
 387 246 387 246 360 257 c 2,41,-1
 355 259 l 1,42,-1
 326 119 l 1,43,36
 366 121 366 121 391 141 c 128,-1,37
286.5 528 m 128,-1,45
 266 511 266 511 266 483 c 0,46,47
 266 464 266 464 277.5 449.5 c 128,-1,48
 289 435 289 435 309 427 c 2,49,-1
 317 424 l 1,50,-1
 343 548 l 1,51,44
 307 545 307 545 286.5 528 c 128,-1,45
EndSplineSet
EndChar
StartChar: ampersand
Encoding: 38 38 289
Width: 632
GlyphClass: 1
Flags: W
LayerCount: 2
Fore
SplineSet
114.5 11 m 128,-1,1
 65 35 65 35 37.5 77.5 c 128,-1,2
 10 120 10 120 10 174 c 0,3,4
 10 252 10 252 59 309 c 128,-1,5
 108 366 108 366 192 397 c 1,6,7
 166 447 166 447 166 506 c 0,8,9
 166 557 166 557 190.5 604 c 128,-1,10
 215 651 215 651 261 680 c 128,-1,11
 307 709 307 709 370 709 c 0,12,13
 420 709 420 709 458 687.5 c 128,-1,14
 496 666 496 666 516.5 630.5 c 128,-1,15
 537 595 537 595 537 553 c 0,16,17
 537 489 537 489 495.5 433 c 128,-1,18
 454 377 454 377 382 345 c 1,19,-1
 439 245 l 1,20,21
 482 294 482 294 507 371 c 1,22,-1
 640 371 l 1,23,24
 613 288 613 288 579 234 c 128,-1,25
 545 180 545 180 499 135 c 1,26,-1
 574 0 l 1,27,-1
 417 0 l 1,28,-1
 396 37 l 1,29,30
 315 -13 315 -13 226 -13 c 0,31,0
 164 -13 164 -13 114.5 11 c 128,-1,1
337 146 m 1,33,-1
 252 297 l 1,34,35
 213 283 213 283 189 256.5 c 128,-1,36
 165 230 165 230 165 193 c 0,37,38
 165 159 165 159 189.5 139.5 c 128,-1,39
 214 120 214 120 252 120 c 0,40,32
 294 120 294 120 337 146 c 1,33,-1
388.5 482.5 m 128,-1,42
 411 510 411 510 411 539 c 0,43,44
 411 561 411 561 397 575 c 128,-1,45
 383 589 383 589 361 589 c 0,46,47
 333 589 333 589 315.5 568.5 c 128,-1,48
 298 548 298 548 298 523 c 0,49,50
 298 504 298 504 307 483.5 c 128,-1,51
 316 463 316 463 334 437 c 1,52,41
 366 455 366 455 388.5 482.5 c 128,-1,42
EndSplineSet
EndChar
StartChar: parenleft
Encoding: 40 40 268
Width: 632
GlyphClass: 1
Flags: W
LayerCount: 2
Fore
SplineSet
125 183 m 0,1,2
 125 332 125 332 201 465.5 c 128,-1,3
 277 599 277 599 421 708 c 1,4,-1
 623 708 l 1,5,6
 474 606 474 606 378.5 471 c 128,-1,7
 283 336 283 336 283 187 c 0,8,9
 283 101 283 101 314 12.5 c 128,-1,10
 345 -76 345 -76 405 -162 c 1,11,-1
 233 -162 l 1,12,0
 125 4 125 4 125 183 c 0,1,2
EndSplineSet
EndChar
StartChar: asterisk
Encoding: 42 42 260
Width: 632
GlyphClass: 1
Flags: W
LayerCount: 2
Fore
SplineSet
195 378 m 1,0,-1
 290 472 l 1,1,-1
 186 522 l 1,2,-1
 232 604 l 1,3,-1
 336 555 l 1,4,-1
 360 670 l 1,5,-1
 452 670 l 1,6,-1
 426 546 l 1,7,-1
 542 571 l 1,8,-1
 554 482 l 1,9,-1
 435 456 l 1,10,-1
 481 359 l 1,11,-1
 400 316 l 1,12,-1
 354 410 l 1,13,-1
 257 316 l 1,14,-1
 195 378 l 1,0,-1
EndSplineSet
EndChar
StartChar: zero
Encoding: 48 48 229
Width: 632
GlyphClass: 1
Flags: W
LayerCount: 2
Fore
SplineSet
103.5 58.5 m 128,-1,1
 37 129 37 129 37 253 c 0,2,3
 37 349 37 349 71.5 447.5 c 128,-1,4
 106 546 106 546 181.5 613 c 128,-1,5
 257 680 257 680 373 680 c 0,6,7
 500 680 500 680 566 610 c 128,-1,8
 632 540 632 540 632 418 c 0,9,10
 632 323 632 323 597 223.5 c 128,-1,11
 562 124 562 124 486.5 56 c 128,-1,12
 411 -12 411 -12 296 -12 c 0,13,0
 170 -12 170 -12 103.5 58.5 c 128,-1,1
374 140 m 1,15,-1
 238 438 l 1,16,17
 218 392 218 392 208 339.5 c 128,-1,18
 198 287 198 287 198 246 c 0,19,20
 198 184 198 184 222 145.5 c 128,-1,21
 246 107 246 107 299 107 c 0,22,14
 341 107 341 107 374 140 c 1,15,-1
460 329.5 m 128,-1,24
 469 380 469 380 469 420 c 0,25,26
 469 483 469 483 446 522.5 c 128,-1,27
 423 562 423 562 371 562 c 0,28,29
 331 562 331 562 297 530 c 1,30,-1
 433 234 l 1,31,23
 451 279 451 279 460 329.5 c 128,-1,24
EndSplineSet
Substitution2: "'zero' Slashed Zero in Latin lookup 10 subtable" zero.zero
AlternateSubs2: "'aalt' Access All Alternates in Latin lookup 0 subtable" zero.zero
EndChar
StartChar: one
Encoding: 49 49 230
Width: 632
GlyphClass: 5
Flags: W
LayerCount: 2
Fore
SplineSet
75 132 m 1,0,-1
 222 132 l 1,1,-1
 288 438 l 1,2,-1
 140 438 l 1,3,-1
 168 571 l 1,4,5
 237 571 237 571 268.5 576.5 c 128,-1,6
 300 582 300 582 321.5 601.5 c 128,-1,7
 343 621 343 621 373 668 c 1,8,-1
 499 668 l 1,9,-1
 384 132 l 1,10,-1
 507 132 l 1,11,-1
 479 0 l 1,12,-1
 47 0 l 1,13,-1
 75 132 l 1,0,-1
EndSplineSet
Substitution2: "'sups' Superscript in Latin lookup 6 subtable" uni00B9
AlternateSubs2: "'aalt' Access All Alternates in Latin lookup 0 subtable" uni00B9
EndChar
StartChar: three
Encoding: 51 51 232
Width: 632
GlyphClass: 5
Flags: W
LayerCount: 2
Fore
SplineSet
129 26.5 m 128,-1,1
 60 65 60 65 36 142 c 1,2,-1
 187 194 l 1,3,4
 195 151 195 151 226.5 129.5 c 128,-1,5
 258 108 258 108 300 108 c 256,6,7
 342 108 342 108 370.5 135 c 128,-1,8
 399 162 399 162 399 201 c 256,9,10
 399 240 399 240 362 263.5 c 128,-1,11
 325 287 325 287 262 287 c 2,12,-1
 239 287 l 1,13,-1
 261 398 l 1,14,-1
 334 398 l 2,15,16
 388 398 388 398 421 422 c 128,-1,17
 454 446 454 446 454 488 c 0,18,19
 454 521 454 521 426.5 540.5 c 128,-1,20
 399 560 399 560 360 560 c 0,21,22
 277 560 277 560 250 484 c 1,23,-1
 107 541 l 1,24,25
 145 615 145 615 214.5 647.5 c 128,-1,26
 284 680 284 680 366 680 c 0,27,28
 431 680 431 680 489.5 661.5 c 128,-1,29
 548 643 548 643 585 604 c 128,-1,30
 622 565 622 565 622 508 c 0,31,32
 622 445 622 445 582.5 398.5 c 128,-1,33
 543 352 543 352 478 332 c 1,34,35
 522 312 522 312 544 277 c 128,-1,36
 566 242 566 242 566 201 c 0,37,38
 566 137 566 137 528.5 88.5 c 128,-1,39
 491 40 491 40 427.5 14 c 128,-1,40
 364 -12 364 -12 289 -12 c 0,41,0
 198 -12 198 -12 129 26.5 c 128,-1,1
EndSplineSet
Substitution2: "'sups' Superscript in Latin lookup 6 subtable" uni00B3
AlternateSubs2: "'aalt' Access All Alternates in Latin lookup 0 subtable" uni00B3
EndChar
StartChar: four
Encoding: 52 52 233
Width: 632
GlyphClass: 5
Flags: W
LayerCount: 2
Fore
SplineSet
329 136 m 1,0,-1
 5 136 l 1,1,-1
 30 253 l 1,2,-1
 438 668 l 1,3,-1
 606 668 l 1,4,-1
 524 281 l 1,5,-1
 611 281 l 1,6,-1
 580 136 l 1,7,-1
 493 136 l 1,8,-1
 464 0 l 1,9,-1
 300 0 l 1,10,-1
 329 136 l 1,0,-1
360 281 m 1,11,-1
 395 445 l 1,12,-1
 391 445 l 1,13,-1
 221 281 l 1,14,-1
 360 281 l 1,11,-1
EndSplineSet
EndChar
StartChar: six
Encoding: 54 54 235
Width: 632
GlyphClass: 1
Flags: W
LayerCount: 2
Fore
SplineSet
118 57 m 128,-1,1
 55 126 55 126 55 241 c 0,2,3
 55 338 55 338 92 439.5 c 128,-1,4
 129 541 129 541 208 610.5 c 128,-1,5
 287 680 287 680 404 680 c 0,6,7
 562 680 562 680 610 566 c 1,8,-1
 465 516 l 1,9,10
 457 537 457 537 436.5 549.5 c 128,-1,11
 416 562 416 562 388 562 c 0,12,13
 335 562 335 562 301 521.5 c 128,-1,14
 267 481 267 481 254 420 c 1,15,16
 279 436 279 436 313 444.5 c 128,-1,17
 347 453 347 453 380 453 c 0,18,19
 441 453 441 453 487.5 426.5 c 128,-1,20
 534 400 534 400 560 354.5 c 128,-1,21
 586 309 586 309 586 253 c 0,22,23
 586 184 586 184 550.5 123 c 128,-1,24
 515 62 515 62 449.5 25 c 128,-1,25
 384 -12 384 -12 299 -12 c 0,26,0
 181 -12 181 -12 118 57 c 128,-1,1
365.5 128 m 128,-1,28
 391 149 391 149 404 180 c 128,-1,29
 417 211 417 211 417 243 c 0,30,31
 417 282 417 282 394.5 307.5 c 128,-1,32
 372 333 372 333 327 333 c 0,33,34
 275 333 275 333 244 293 c 128,-1,35
 213 253 213 253 213 201 c 0,36,37
 213 160 213 160 237 133.5 c 128,-1,38
 261 107 261 107 303 107 c 0,39,27
 340 107 340 107 365.5 128 c 128,-1,28
EndSplineSet
EndChar
StartChar: eight
Encoding: 56 56 237
Width: 632
GlyphClass: 1
Flags: W
LayerCount: 2
Fore
SplineSet
165.5 10.5 m 128,-1,1
 103 33 103 33 65 78.5 c 128,-1,2
 27 124 27 124 27 189 c 0,3,4
 27 265 27 265 68.5 317.5 c 128,-1,5
 110 370 110 370 182 395 c 1,6,7
 169 424 169 424 169 461 c 0,8,9
 169 518 169 518 198 568.5 c 128,-1,10
 227 619 227 619 276.5 649.5 c 128,-1,11
 326 680 326 680 386 680 c 0,12,13
 440 680 440 680 479.5 657.5 c 128,-1,14
 519 635 519 635 540.5 596.5 c 128,-1,15
 562 558 562 558 562 510 c 0,16,17
 562 469 562 469 547.5 431 c 128,-1,18
 533 393 533 393 506 363 c 1,19,20
 587 307 587 307 587 222 c 0,21,22
 587 151 587 151 548.5 98 c 128,-1,23
 510 45 510 45 444.5 16.5 c 128,-1,24
 379 -12 379 -12 302 -12 c 0,25,0
 228 -12 228 -12 165.5 10.5 c 128,-1,1
387.5 146 m 128,-1,27
 419 169 419 169 419 208 c 0,28,29
 419 246 419 246 386 267.5 c 128,-1,30
 353 289 353 289 307 289 c 0,31,32
 258 289 258 289 226.5 266.5 c 128,-1,33
 195 244 195 244 195 205 c 256,34,35
 195 166 195 166 228 144.5 c 128,-1,36
 261 123 261 123 307 123 c 0,37,26
 356 123 356 123 387.5 146 c 128,-1,27
406.5 442.5 m 128,-1,39
 427 464 427 464 427 491 c 0,40,41
 427 515 427 515 412.5 531 c 128,-1,42
 398 547 398 547 374 547 c 0,43,44
 343 547 343 547 322.5 525 c 128,-1,45
 302 503 302 503 302 475 c 0,46,47
 302 452 302 452 318.5 436.5 c 128,-1,48
 335 421 335 421 358 421 c 0,49,38
 386 421 386 421 406.5 442.5 c 128,-1,39
EndSplineSet
EndChar
StartChar: less
Encoding: 60 60 318
Width: 632
GlyphClass: 1
Flags: W
LayerCount: 2
Fore
SplineSet
56 198 m 1,0,-1
 78 302 l 1,1,-1
 620 513 l 1,2,-1
 586 352 l 1,3,-1
 245 240 l 1,4,-1
 538 126 l 1,5,-1
 508 -14 l 1,6,-1
 56 198 l 1,0,-1
EndSplineSet
EndChar
StartChar: question
Encoding: 63 63 256
Width: 632
GlyphClass: 1
Flags: W
LayerCount: 2
Fore
SplineSet
247 369 m 128,-1,1
 284 409 284 409 355 429 c 0,2,3
 414 446 414 446 438.5 459 c 128,-1,4
 463 472 463 472 463 495 c 0,5,6
 463 520 463 520 433.5 535 c 128,-1,7
 404 550 404 550 363 550 c 0,8,9
 323 550 323 550 289 533 c 128,-1,10
 255 516 255 516 237 481 c 1,11,-1
 91 540 l 1,12,13
 127 608 127 608 199.5 644 c 128,-1,14
 272 680 272 680 371 680 c 0,15,16
 435 680 435 680 495.5 661 c 128,-1,17
 556 642 556 642 595 602.5 c 128,-1,18
 634 563 634 563 634 506 c 0,19,20
 634 438 634 438 592 396.5 c 128,-1,21
 550 355 550 355 466 330 c 0,22,23
 406 311 406 311 383 294 c 128,-1,24
 360 277 360 277 356 253 c 2,25,-1
 354 240 l 1,26,-1
 189 240 l 1,27,-1
 193 257 l 2,28,0
 210 329 210 329 247 369 c 128,-1,1
170 18.5 m 128,-1,30
 140 49 140 49 140 91 c 0,31,32
 140 134 140 134 170 164 c 128,-1,33
 200 194 200 194 243 194 c 0,34,35
 285 194 285 194 315.5 164 c 128,-1,36
 346 134 346 134 346 91 c 0,37,38
 346 49 346 49 315.5 18.5 c 128,-1,39
 285 -12 285 -12 243 -12 c 0,40,29
 200 -12 200 -12 170 18.5 c 128,-1,30
EndSplineSet
EndChar
StartChar: at
Encoding: 64 64 288
Width: 632
GlyphClass: 1
Flags: W
LayerCount: 2
Fore
SplineSet
129.5 -65 m 128,-1,1
 69 -27 69 -27 37.5 39.5 c 128,-1,2
 6 106 6 106 6 188 c 0,3,4
 6 296 6 296 52 393.5 c 128,-1,5
 98 491 98 491 181 551 c 128,-1,6
 264 611 264 611 369 611 c 0,7,8
 453 611 453 611 513.5 575.5 c 128,-1,9
 574 540 574 540 605 479 c 128,-1,10
 636 418 636 418 636 341 c 0,11,12
 636 283 636 283 616 220.5 c 128,-1,13
 596 158 596 158 555 115 c 128,-1,14
 514 72 514 72 454 72 c 0,15,16
 426 72 426 72 401.5 87.5 c 128,-1,17
 377 103 377 103 366 130 c 1,18,19
 320 75 320 75 266 75 c 256,20,21
 212 75 212 75 181 116.5 c 128,-1,22
 150 158 150 158 150 217 c 0,23,24
 150 271 150 271 174.5 322 c 128,-1,25
 199 373 199 373 244.5 405.5 c 128,-1,26
 290 438 290 438 349 438 c 0,27,28
 381 438 381 438 419.5 429 c 128,-1,29
 458 420 458 420 489 405 c 1,30,-1
 452 234 l 2,31,32
 448 214 448 214 448 197 c 0,33,34
 448 154 448 154 477 154 c 0,35,36
 501 154 501 154 518 186.5 c 128,-1,37
 535 219 535 219 544 263 c 128,-1,38
 553 307 553 307 553 338 c 0,39,40
 553 426 553 426 503 481 c 128,-1,41
 453 536 453 536 361 536 c 0,42,43
 276 536 276 536 215 483 c 128,-1,44
 154 430 154 430 123.5 350.5 c 128,-1,45
 93 271 93 271 93 195 c 0,46,47
 93 96 93 96 143 34 c 128,-1,48
 193 -28 193 -28 288 -28 c 0,49,50
 336 -28 336 -28 385 -3 c 1,51,-1
 367 -86 l 1,52,53
 322 -103 322 -103 273 -103 c 0,54,0
 190 -103 190 -103 129.5 -65 c 128,-1,1
339.5 190.5 m 128,-1,56
 360 211 360 211 368 248 c 2,57,-1
 387 339 l 1,58,59
 360 348 360 348 342 348 c 0,60,61
 311 348 311 348 291 327.5 c 128,-1,62
 271 307 271 307 261.5 278.5 c 128,-1,63
 252 250 252 250 252 227 c 0,64,65
 252 202 252 202 263 186 c 128,-1,66
 274 170 274 170 297 170 c 0,67,55
 319 170 319 170 339.5 190.5 c 128,-1,56
EndSplineSet
EndChar
StartChar: D
Encoding: 68 68 19
Width: 632
GlyphClass: 2
Flags: W
AnchorPoint: "Anchor-1" 396 668 basechar 0
AnchorPoint: "Anchor-0" 272 0 basechar 0
LayerCount: 2
Fore
SplineSet
151 668 m 1,0,-1
 295 668 l 2,1,2
 451 668 451 668 535 600 c 128,-1,3
 619 532 619 532 619 390 c 0,4,5
 619 309 619 309 587 219 c 128,-1,6
 555 129 555 129 477.5 64.5 c 128,-1,7
 400 0 400 0 275 0 c 2,8,-1
 9 0 l 1,9,-1
 151 668 l 1,0,-1
382 174.5 m 128,-1,11
 422 212 422 212 441 270 c 128,-1,12
 460 328 460 328 460 390 c 0,13,14
 460 468 460 468 416 500.5 c 128,-1,15
 372 533 372 533 297 533 c 2,16,-1
 276 533 l 1,17,-1
 192 137 l 1,18,-1
 281 137 l 2,19,10
 342 137 342 137 382 174.5 c 128,-1,11
EndSplineSet
EndChar
StartChar: E
Encoding: 69 69 23
Width: 632
GlyphClass: 2
Flags: W
AnchorPoint: "Anchor-2" 514 10 basechar 0
AnchorPoint: "Anchor-1" 418 668 basechar 0
AnchorPoint: "Anchor-0" 265 0 basechar 0
LayerCount: 2
Fore
SplineSet
177 668 m 1,0,-1
 650 668 l 1,1,-1
 618 519 l 1,2,-1
 315 519 l 1,3,-1
 293 418 l 1,4,-1
 467 418 l 1,5,-1
 435 269 l 1,6,-1
 262 269 l 1,7,-1
 236 149 l 1,8,-1
 544 149 l 1,9,-1
 512 0 l 1,10,-1
 35 0 l 1,11,-1
 177 668 l 1,0,-1
EndSplineSet
EndChar
StartChar: G
Encoding: 71 71 33
Width: 632
GlyphClass: 2
Flags: W
AnchorPoint: "Anchor-1" 398 668 basechar 0
AnchorPoint: "Anchor-0" 270 0 basechar 0
LayerCount: 2
Fore
SplineSet
101 60.5 m 128,-1,1
 48 133 48 133 48 249 c 0,2,3
 48 347 48 347 85.5 446.5 c 128,-1,4
 123 546 123 546 199 613 c 128,-1,5
 275 680 275 680 386 680 c 0,6,7
 465 680 465 680 526 640 c 128,-1,8
 587 600 587 600 606 525 c 1,9,-1
 474 480 l 1,10,11
 464 513 464 513 437 529.5 c 128,-1,12
 410 546 410 546 379 546 c 0,13,14
 322 546 322 546 283.5 500 c 128,-1,15
 245 454 245 454 226 388.5 c 128,-1,16
 207 323 207 323 207 265 c 0,17,18
 207 201 207 201 233.5 161.5 c 128,-1,19
 260 122 260 122 317 122 c 0,20,21
 361 122 361 122 391.5 148.5 c 128,-1,22
 422 175 422 175 438 237 c 2,23,-1
 443 257 l 1,24,-1
 325 257 l 1,25,-1
 352 383 l 1,26,-1
 611 383 l 1,27,-1
 529 0 l 1,28,-1
 435 0 l 1,29,-1
 429 66 l 1,30,31
 396 26 396 26 352.5 7 c 128,-1,32
 309 -12 309 -12 260 -12 c 0,33,0
 154 -12 154 -12 101 60.5 c 128,-1,1
EndSplineSet
EndChar
StartChar: I
Encoding: 73 73 39
Width: 632
GlyphClass: 2
Flags: W
AnchorPoint: "Anchor-2" 472 10 basechar 0
AnchorPoint: "Anchor-1" 405 668 basechar 0
AnchorPoint: "Anchor-0" 263 0 basechar 0
LayerCount: 2
Fore
SplineSet
82 123 m 1,0,-1
 204 123 l 1,1,-1
 295 545 l 1,2,-1
 172 545 l 1,3,-1
 198 668 l 1,4,-1
 612 668 l 1,5,-1
 586 545 l 1,6,-1
 464 545 l 1,7,-1
 373 123 l 1,8,-1
 496 123 l 1,9,-1
 470 0 l 1,10,-1
 56 0 l 1,11,-1
 82 123 l 1,0,-1
EndSplineSet
EndChar
StartChar: J
Encoding: 74 74 48
Width: 632
GlyphClass: 2
Flags: W
AnchorPoint: "Anchor-1" 572 668 basechar 0
AnchorPoint: "Anchor-0" 257 0 basechar 0
LayerCount: 2
Fore
SplineSet
93.5 33.5 m 128,-1,1
 22 79 22 79 5 174 c 1,2,-1
 167 232 l 1,3,4
 173 176 173 176 199.5 148.5 c 128,-1,5
 226 121 226 121 279 121 c 0,6,7
 327 121 327 121 355.5 152 c 128,-1,8
 384 183 384 183 399 253 c 2,9,-1
 487 668 l 1,10,-1
 656 668 l 1,11,-1
 564 235 l 2,12,13
 539 116 539 116 465.5 52 c 128,-1,14
 392 -12 392 -12 272 -12 c 0,15,0
 165 -12 165 -12 93.5 33.5 c 128,-1,1
EndSplineSet
Substitution2: "Single Substitution lookup 13 subtable" uni004A0301
AlternateSubs2: "'aalt' Access All Alternates in Latin lookup 0 subtable" uni004A0301
EndChar
StartChar: L
Encoding: 76 76 52
Width: 632
GlyphClass: 2
Flags: W
AnchorPoint: "Anchor-3" 360 459 basechar 0
AnchorPoint: "Anchor-1" 421 668 basechar 0
AnchorPoint: "Anchor-0" 290 0 basechar 0
LayerCount: 2
Fore
SplineSet
190 668 m 1,0,-1
 359 668 l 1,1,-1
 249 149 l 1,2,-1
 563 149 l 1,3,-1
 531 0 l 1,4,-1
 48 0 l 1,5,-1
 190 668 l 1,0,-1
EndSplineSet
EndChar
StartChar: M
Encoding: 77 77 56
Width: 632
GlyphClass: 2
Flags: W
AnchorPoint: "Anchor-1" 405 668 basechar 0
AnchorPoint: "Anchor-0" 263 0 basechar 0
LayerCount: 2
Fore
SplineSet
124 668 m 1,0,-1
 326 668 l 1,1,-1
 309 211 l 1,2,-1
 313 211 l 1,3,-1
 492 668 l 1,4,-1
 686 668 l 1,5,-1
 544 0 l 1,6,-1
 420 0 l 1,7,-1
 528 503 l 1,8,-1
 524 503 l 1,9,-1
 323 0 l 1,10,-1
 200 0 l 1,11,-1
 215 503 l 1,12,-1
 211 503 l 1,13,-1
 104 0 l 1,14,-1
 -18 0 l 1,15,-1
 124 668 l 1,0,-1
EndSplineSet
EndChar
StartChar: P
Encoding: 80 80 71
Width: 632
GlyphClass: 2
Flags: W
AnchorPoint: "Anchor-1" 418 668 basechar 0
AnchorPoint: "Anchor-0" 276 0 basechar 0
LayerCount: 2
Fore
SplineSet
155 668 m 1,0,-1
 408 668 l 2,1,2
 517 668 517 668 584 616 c 128,-1,3
 651 564 651 564 651 473 c 0,4,5
 651 401 651 401 618 344.5 c 128,-1,6
 585 288 585 288 524 256 c 128,-1,7
 463 224 463 224 382 224 c 2,8,-1
 215 224 l 1,9,-1
 168 0 l 1,10,-1
 13 0 l 1,11,-1
 155 668 l 1,0,-1
464.5 387 m 128,-1,13
 491 417 491 417 491 457 c 0,14,15
 491 494 491 494 465 514.5 c 128,-1,16
 439 535 439 535 395 535 c 2,17,-1
 282 535 l 1,18,-1
 244 357 l 1,19,-1
 380 357 l 2,20,12
 438 357 438 357 464.5 387 c 128,-1,13
EndSplineSet
EndChar
StartChar: Q
Encoding: 81 81 73
Width: 632
GlyphClass: 1
Flags: W
LayerCount: 2
Fore
SplineSet
109 58.5 m 128,-1,1
 48 129 48 129 48 251 c 0,2,3
 48 352 48 352 84.5 451 c 128,-1,4
 121 550 121 550 195 615 c 128,-1,5
 269 680 269 680 377 680 c 0,6,7
 498 680 498 680 559 609.5 c 128,-1,8
 620 539 620 539 620 417 c 0,9,10
 620 343 620 343 600 267.5 c 128,-1,11
 580 192 580 192 541 131 c 1,12,-1
 590 73 l 1,13,-1
 494 -10 l 1,14,-1
 453 38 l 1,15,16
 382 -12 382 -12 291 -12 c 0,17,0
 170 -12 170 -12 109 58.5 c 128,-1,1
363 146 m 1,19,-1
 274 250 l 1,20,-1
 370 331 l 1,21,-1
 431 259 l 1,22,23
 445 298 445 298 452 341 c 128,-1,24
 459 384 459 384 459 418 c 0,25,26
 459 475 459 475 438 510.5 c 128,-1,27
 417 546 417 546 369 546 c 0,28,29
 316 546 316 546 280 495.5 c 128,-1,30
 244 445 244 445 226.5 375 c 128,-1,31
 209 305 209 305 209 250 c 0,32,33
 209 193 209 193 230 157.5 c 128,-1,34
 251 122 251 122 299 122 c 0,35,18
 334 122 334 122 363 146 c 1,19,-1
EndSplineSet
EndChar
StartChar: R
Encoding: 82 82 74
Width: 632
GlyphClass: 2
Flags: W
AnchorPoint: "Anchor-1" 386 668 basechar 0
AnchorPoint: "Anchor-0" 264 0 basechar 0
LayerCount: 2
Fore
SplineSet
141 668 m 1,0,-1
 386 668 l 2,1,2
 450 668 450 668 502.5 646 c 128,-1,3
 555 624 555 624 585 582 c 128,-1,4
 615 540 615 540 615 482 c 0,5,6
 615 397 615 397 566.5 335.5 c 128,-1,7
 518 274 518 274 431 256 c 1,8,-1
 549 0 l 1,9,-1
 378 0 l 1,10,-1
 276 245 l 1,11,-1
 205 245 l 1,12,-1
 153 0 l 1,13,-1
 -1 0 l 1,14,-1
 141 668 l 1,0,-1
430.5 405 m 128,-1,16
 454 431 454 431 454 468 c 0,17,18
 454 500 454 500 431 517.5 c 128,-1,19
 408 535 408 535 368 535 c 2,20,-1
 267 535 l 1,21,-1
 234 379 l 1,22,-1
 354 379 l 2,23,15
 407 379 407 379 430.5 405 c 128,-1,16
EndSplineSet
EndChar
StartChar: U
Encoding: 85 85 87
Width: 632
GlyphClass: 2
Flags: W
AnchorPoint: "Anchor-3" 714 668 basechar 0
AnchorPoint: "Anchor-1" 404 668 basechar 0
LayerCount: 2
Fore
SplineSet
114 37.5 m 128,-1,1
 49 87 49 87 49 193 c 0,2,3
 49 238 49 238 61 295 c 2,4,-1
 140 668 l 1,5,-1
 309 668 l 1,6,-1
 221 254 l 2,7,8
 215 220 215 220 215 206 c 0,9,10
 215 167 215 167 236.5 146 c 128,-1,11
 258 125 258 125 308 125 c 0,12,13
 353 125 353 125 375 152.5 c 128,-1,14
 397 180 397 180 409 234 c 2,15,-1
 501 668 l 1,16,-1
 670 668 l 1,17,-1
 580 240 l 2,18,19
 553 110 553 110 489 49 c 128,-1,20
 425 -12 425 -12 310 -12 c 0,21,0
 179 -12 179 -12 114 37.5 c 128,-1,1
EndSplineSet
EndChar
StartChar: W
Encoding: 87 87 97
Width: 632
GlyphClass: 2
Flags: W
AnchorPoint: "Anchor-1" 402 668 basechar 0
AnchorPoint: "Anchor-0" 264 0 basechar 0
LayerCount: 2
Fore
SplineSet
96 668 m 1,0,-1
 221 668 l 1,1,-1
 172 209 l 1,2,-1
 176 209 l 1,3,-1
 330 668 l 1,4,-1
 474 668 l 1,5,-1
 435 209 l 1,6,-1
 439 209 l 1,7,-1
 583 668 l 1,8,-1
 714 668 l 1,9,-1
 469 0 l 1,10,-1
 322 0 l 1,11,-1
 364 469 l 1,12,-1
 360 469 l 1,13,-1
 205 0 l 1,14,-1
 58 0 l 1,15,-1
 96 668 l 1,0,-1
EndSplineSet
EndChar
StartChar: X
Encoding: 88 88 102
Width: 632
GlyphClass: 2
Flags: W
AnchorPoint: "Anchor-1" 406 668 basechar 0
AnchorPoint: "Anchor-0" 264 0 basechar 0
LayerCount: 2
Fore
SplineSet
248 345 m 1,0,-1
 118 668 l 1,1,-1
 286 668 l 1,2,-1
 359 481 l 1,3,-1
 363 481 l 1,4,-1
 511 668 l 1,5,-1
 693 668 l 1,6,-1
 425 341 l 1,7,-1
 563 0 l 1,8,-1
 395 0 l 1,9,-1
 313 207 l 1,10,-1
 309 207 l 1,11,-1
 146 0 l 1,12,-1
 -36 0 l 1,13,-1
 248 345 l 1,0,-1
EndSplineSet
EndChar
StartChar: Y
Encoding: 89 89 103
Width: 632
GlyphClass: 2
Flags: W
AnchorPoint: "Anchor-1" 390 668 basechar 0
AnchorPoint: "Anchor-0" 264 0 basechar 0
LayerCount: 2
Fore
SplineSet
241 262 m 1,0,-1
 95 668 l 1,1,-1
 269 668 l 1,2,-1
 345 422 l 1,3,-1
 349 422 l 1,4,-1
 530 668 l 1,5,-1
 715 668 l 1,6,-1
 396 262 l 1,7,-1
 340 0 l 1,8,-1
 185 0 l 1,9,-1
 241 262 l 1,0,-1
EndSplineSet
EndChar
StartChar: backslash
Encoding: 92 92 263
Width: 632
GlyphClass: 1
Flags: W
LayerCount: 2
Fore
SplineSet
359 -90 m 1,0,-1
 138 708 l 1,1,-1
 299 708 l 1,2,-1
 520 -90 l 1,3,-1
 359 -90 l 1,0,-1
EndSplineSet
EndChar
StartChar: bracketright
Encoding: 93 93 273
Width: 632
GlyphClass: 1
Flags: W
LayerCount: 2
Fore
SplineSet
82 -39 m 1,0,-1
 270 -39 l 1,1,-1
 401 585 l 1,2,-1
 214 585 l 1,3,-1
 240 708 l 1,4,-1
 565 708 l 1,5,-1
 381 -162 l 1,6,-1
 56 -162 l 1,7,-1
 82 -39 l 1,0,-1
EndSplineSet
EndChar
StartChar: b
Encoding: 98 98 123
Width: 632
GlyphClass: 2
Flags: W
AnchorPoint: "Anchor-1" 367 496 basechar 0
AnchorPoint: "Anchor-0" 262 0 basechar 0
LayerCount: 2
Fore
SplineSet
239.5 11 m 128,-1,1
 201 34 201 34 187 71 c 1,2,-1
 153 0 l 1,3,-1
 7 0 l 1,4,-1
 158 708 l 1,5,-1
 322 708 l 1,6,-1
 264 440 l 1,7,8
 290 472 290 472 334 491.5 c 128,-1,9
 378 511 378 511 422 511 c 0,10,11
 503 511 503 511 550 453.5 c 128,-1,12
 597 396 597 396 597 305 c 0,13,14
 597 223 597 223 565 150.5 c 128,-1,15
 533 78 533 78 472 33 c 128,-1,16
 411 -12 411 -12 330 -12 c 0,17,0
 278 -12 278 -12 239.5 11 c 128,-1,1
370 142.5 m 128,-1,19
 400 171 400 171 414 211 c 128,-1,20
 428 251 428 251 428 286 c 0,21,22
 428 331 428 331 406.5 358.5 c 128,-1,23
 385 386 385 386 345 386 c 0,24,25
 299 386 299 386 268.5 356.5 c 128,-1,26
 238 327 238 327 224 285.5 c 128,-1,27
 210 244 210 244 210 207 c 0,28,29
 210 163 210 163 232 138.5 c 128,-1,30
 254 114 254 114 296 114 c 0,31,18
 340 114 340 114 370 142.5 c 128,-1,19
EndSplineSet
EndChar
StartChar: c
Encoding: 99 99 124
Width: 632
GlyphClass: 2
Flags: W
AnchorPoint: "Anchor-1" 390 496 basechar 0
AnchorPoint: "Anchor-0" 289 0 basechar 0
LayerCount: 2
Fore
SplineSet
138 45 m 128,-1,1
 70 102 70 102 70 208 c 0,2,3
 70 295 70 295 107.5 364 c 128,-1,4
 145 433 145 433 212 472 c 128,-1,5
 279 511 279 511 365 511 c 0,6,7
 444 511 444 511 508.5 477 c 128,-1,8
 573 443 573 443 598 374 c 1,9,-1
 463 327 l 1,10,11
 452 356 452 356 426.5 371 c 128,-1,12
 401 386 401 386 370 386 c 0,13,14
 324 386 324 386 294 359.5 c 128,-1,15
 264 333 264 333 250.5 294.5 c 128,-1,16
 237 256 237 256 237 218 c 0,17,18
 237 169 237 169 262.5 141 c 128,-1,19
 288 113 288 113 341 113 c 0,20,21
 371 113 371 113 394.5 124 c 128,-1,22
 418 135 418 135 430 157 c 1,23,-1
 563 105 l 1,24,25
 525 48 525 48 461.5 18 c 128,-1,26
 398 -12 398 -12 324 -12 c 0,27,0
 206 -12 206 -12 138 45 c 128,-1,1
EndSplineSet
EndChar
StartChar: e
Encoding: 101 101 133
Width: 632
GlyphClass: 2
Flags: W
AnchorPoint: "Anchor-2" 480 10 basechar 0
AnchorPoint: "Anchor-1" 378 496 basechar 0
AnchorPoint: "Anchor-0" 268 0 basechar 0
LayerCount: 2
Fore
SplineSet
178 15 m 128,-1,1
 121 42 121 42 88.5 93 c 128,-1,2
 56 144 56 144 56 214 c 0,3,4
 56 297 56 297 95.5 365 c 128,-1,5
 135 433 135 433 203 472 c 128,-1,6
 271 511 271 511 353 511 c 0,7,8
 466 511 466 511 526.5 448 c 128,-1,9
 587 385 587 385 587 282 c 0,10,11
 587 247 587 247 579 205 c 1,12,-1
 210 205 l 1,13,14
 215 160 215 160 244 136.5 c 128,-1,15
 273 113 273 113 326 113 c 0,16,17
 382 113 382 113 412 146 c 1,18,-1
 534 96 l 1,19,20
 493 44 493 44 433 16 c 128,-1,21
 373 -12 373 -12 306 -12 c 0,22,0
 235 -12 235 -12 178 15 c 128,-1,1
421 366.5 m 128,-1,24
 395 391 395 391 347 391 c 0,25,26
 300 391 300 391 269 366 c 128,-1,27
 238 341 238 341 223 301 c 1,28,-1
 447 301 l 1,29,23
 447 342 447 342 421 366.5 c 128,-1,24
EndSplineSet
EndChar
StartChar: f
Encoding: 102 102 142
Width: 632
GlyphClass: 2
Flags: W
AnchorPoint: "Anchor-1" 412 796 basechar 0
AnchorPoint: "Anchor-0" 243 0 basechar 0
LayerCount: 2
Fore
SplineSet
241 373 m 1,0,-1
 110 373 l 1,1,-1
 136 496 l 1,2,-1
 267 496 l 1,3,-1
 286 583 l 2,4,5
 298 641 298 641 323 670 c 128,-1,6
 348 699 348 699 385.5 708.5 c 128,-1,7
 423 718 423 718 485 718 c 2,8,-1
 702 718 l 1,9,-1
 675 590 l 1,10,-1
 494 590 l 2,11,12
 468 590 468 590 457.5 582.5 c 128,-1,13
 447 575 447 575 443 552 c 2,14,-1
 431 496 l 1,15,-1
 551 496 l 1,16,-1
 525 373 l 1,17,-1
 405 373 l 1,18,-1
 326 0 l 1,19,-1
 162 0 l 1,20,-1
 241 373 l 1,0,-1
EndSplineSet
EndChar
StartChar: g
Encoding: 103 103 143
Width: 632
GlyphClass: 2
Flags: W
AnchorPoint: "Anchor-1" 377 496 basechar 0
AnchorPoint: "Anchor-0" 218 -251 basechar 0
LayerCount: 2
Fore
SplineSet
121.5 -177 m 128,-1,1
 59 -149 59 -149 32 -87 c 1,2,-1
 162 -33 l 1,3,4
 178 -60 178 -60 206 -71 c 128,-1,5
 234 -82 234 -82 263 -82 c 0,6,7
 298 -82 298 -82 325 -63 c 128,-1,8
 352 -44 352 -44 361 0 c 2,9,-1
 380 87 l 1,10,11
 306 20 306 20 217 20 c 0,12,13
 164 20 164 20 124.5 48 c 128,-1,14
 85 76 85 76 64 123 c 128,-1,15
 43 170 43 170 43 227 c 0,16,17
 43 302 43 302 73.5 367 c 128,-1,18
 104 432 104 432 161.5 471.5 c 128,-1,19
 219 511 219 511 296 511 c 0,20,21
 343 511 343 511 385.5 488.5 c 128,-1,22
 428 466 428 466 449 426 c 1,23,-1
 486 496 l 1,24,-1
 629 496 l 1,25,-1
 528 16 l 2,26,27
 481 -205 481 -205 263 -205 c 0,28,0
 184 -205 184 -205 121.5 -177 c 128,-1,1
377 173.5 m 128,-1,30
 409 201 409 201 422 259 c 0,31,32
 426 276 426 276 426 296 c 0,33,34
 426 339 426 339 401.5 362.5 c 128,-1,35
 377 386 377 386 335 386 c 0,36,37
 291 386 291 386 263.5 363 c 128,-1,38
 236 340 236 340 224 307.5 c 128,-1,39
 212 275 212 275 212 244 c 0,40,41
 212 200 212 200 235 173 c 128,-1,42
 258 146 258 146 303 146 c 0,43,29
 345 146 345 146 377 173.5 c 128,-1,30
EndSplineSet
EndChar
StartChar: l
Encoding: 108 108 163
Width: 632
GlyphClass: 2
Flags: W
AnchorPoint: "Anchor-3" 438 497 basechar 0
AnchorPoint: "Anchor-1" 419 796 basechar 0
AnchorPoint: "Anchor-0" 338 0 basechar 0
LayerCount: 2
Fore
SplineSet
200 23 m 128,-1,1
 159 46 159 46 159 102 c 0,2,3
 159 130 159 130 166 161 c 2,4,-1
 256 585 l 1,5,-1
 141 585 l 1,6,-1
 167 708 l 1,7,-1
 446 708 l 1,8,-1
 337 199 l 2,9,10
 332 177 332 177 332 166 c 0,11,12
 332 145 332 145 347 136.5 c 128,-1,13
 362 128 362 128 399 128 c 2,14,-1
 558 128 l 1,15,-1
 531 0 l 1,16,-1
 339 0 l 2,17,0
 241 0 241 0 200 23 c 128,-1,1
EndSplineSet
EndChar
StartChar: m
Encoding: 109 109 167
Width: 632
GlyphClass: 2
Flags: W
AnchorPoint: "Anchor-1" 371 496 basechar 0
AnchorPoint: "Anchor-0" 266 0 basechar 0
LayerCount: 2
Fore
SplineSet
95 496 m 1,0,-1
 205 496 l 1,1,-1
 209 451 l 1,2,3
 233 478 233 478 263 494.5 c 128,-1,4
 293 511 293 511 326 511 c 0,5,6
 394 511 394 511 409 455 c 1,7,8
 432 481 432 481 463.5 496 c 128,-1,9
 495 511 495 511 530 511 c 0,10,11
 576 511 576 511 600 486.5 c 128,-1,12
 624 462 624 462 624 418 c 0,13,14
 624 401 624 401 619 376 c 2,15,-1
 539 0 l 1,16,-1
 406 0 l 1,17,-1
 476 327 l 2,18,19
 480 349 480 349 480 355 c 0,20,21
 480 386 480 386 454 386 c 0,22,23
 412 386 412 386 397 310 c 2,24,-1
 331 0 l 1,25,-1
 198 0 l 1,26,-1
 267 327 l 2,27,28
 271 342 271 342 271 356 c 0,29,30
 271 386 271 386 246 386 c 0,31,32
 204 386 204 386 188 309 c 2,33,-1
 123 0 l 1,34,-1
 -10 0 l 1,35,-1
 95 496 l 1,0,-1
EndSplineSet
EndChar
StartChar: n
Encoding: 110 110 168
Width: 632
GlyphClass: 2
Flags: W
AnchorPoint: "Anchor-1" 370 496 basechar 0
AnchorPoint: "Anchor-0" 265 0 basechar 0
LayerCount: 2
Fore
SplineSet
127 496 m 1,0,-1
 273 496 l 1,1,-1
 278 432 l 1,2,3
 302 462 302 462 346 486.5 c 128,-1,4
 390 511 390 511 440 511 c 0,5,6
 582 511 582 511 582 375 c 0,7,8
 582 341 582 341 573 300 c 2,9,-1
 509 0 l 1,10,-1
 345 0 l 1,11,-1
 404 276 l 2,12,13
 409 304 409 304 409 322 c 0,14,15
 409 353 409 353 395.5 369.5 c 128,-1,16
 382 386 382 386 350 386 c 0,17,18
 310 386 310 386 281 349.5 c 128,-1,19
 252 313 252 313 238 248 c 2,20,-1
 186 0 l 1,21,-1
 22 0 l 1,22,-1
 127 496 l 1,0,-1
EndSplineSet
EndChar
StartChar: s
Encoding: 115 115 188
Width: 632
GlyphClass: 2
Flags: W
AnchorPoint: "Anchor-1" 360 496 basechar 0
AnchorPoint: "Anchor-0" 288 0 basechar 0
LayerCount: 2
Fore
SplineSet
144.5 19.5 m 128,-1,1
 72 51 72 51 45 118 c 1,2,-1
 184 166 l 1,3,4
 195 134 195 134 232 119 c 128,-1,5
 269 104 269 104 308 104 c 0,6,7
 338 104 338 104 360.5 113 c 128,-1,8
 383 122 383 122 383 144 c 256,9,10
 383 166 383 166 321 184 c 2,11,-1
 236 209 l 2,12,13
 173 228 173 228 137.5 261.5 c 128,-1,14
 102 295 102 295 102 344 c 0,15,16
 102 398 102 398 134.5 435.5 c 128,-1,17
 167 473 167 473 220.5 492 c 128,-1,18
 274 511 274 511 335 511 c 0,19,20
 414 511 414 511 477 482.5 c 128,-1,21
 540 454 540 454 564 389 c 1,22,-1
 427 342 l 1,23,24
 417 372 417 372 387 384 c 128,-1,25
 357 396 357 396 323 396 c 0,26,27
 297 396 297 396 278.5 388 c 128,-1,28
 260 380 260 380 260 361 c 0,29,30
 260 338 260 338 307 324 c 2,31,-1
 398 297 l 2,32,33
 470 275 470 275 506 243.5 c 128,-1,34
 542 212 542 212 542 163 c 0,35,36
 542 107 542 107 510 67.5 c 128,-1,37
 478 28 478 28 424.5 8 c 128,-1,38
 371 -12 371 -12 308 -12 c 0,39,0
 217 -12 217 -12 144.5 19.5 c 128,-1,1
EndSplineSet
EndChar
StartChar: t
Encoding: 116 116 194
Width: 632
GlyphClass: 2
Flags: W
AnchorPoint: "Anchor-3" 445 554 basechar 0
AnchorPoint: "Anchor-1" 341 496 basechar 0
AnchorPoint: "Anchor-0" 280 0 basechar 0
LayerCount: 2
Fore
SplineSet
200 23 m 128,-1,1
 160 46 160 46 160 103 c 0,2,3
 160 129 160 129 167 160 c 2,4,-1
 213 373 l 1,5,-1
 115 373 l 1,6,-1
 141 496 l 1,7,-1
 239 496 l 1,8,-1
 265 620 l 1,9,-1
 429 620 l 1,10,-1
 403 496 l 1,11,-1
 604 496 l 1,12,-1
 577 373 l 1,13,-1
 377 373 l 1,14,-1
 337 190 l 2,15,16
 334 178 334 178 334 168 c 0,17,18
 334 146 334 146 350 137 c 128,-1,19
 366 128 366 128 402 128 c 2,20,-1
 475 128 l 1,21,-1
 448 0 l 1,22,-1
 337 0 l 2,23,0
 240 0 240 0 200 23 c 128,-1,1
EndSplineSet
EndChar
StartChar: u
Encoding: 117 117 198
Width: 632
GlyphClass: 2
Flags: W
AnchorPoint: "Anchor-3" 635 496 basechar 0
AnchorPoint: "Anchor-2" 505 10 basechar 0
AnchorPoint: "Anchor-1" 367 496 basechar 0
AnchorPoint: "Anchor-0" 262 0 basechar 0
LayerCount: 2
Fore
SplineSet
88 23 m 128,-1,1
 54 58 54 58 54 123 c 0,2,3
 54 161 54 161 62 196 c 2,4,-1
 126 496 l 1,5,-1
 290 496 l 1,6,-1
 231 220 l 2,7,8
 226 193 226 193 226 176 c 0,9,10
 226 113 226 113 282 113 c 0,11,12
 321 113 321 113 349.5 149 c 128,-1,13
 378 185 378 185 392 251 c 2,14,-1
 444 496 l 1,15,-1
 608 496 l 1,16,-1
 503 0 l 1,17,-1
 360 0 l 1,18,-1
 353 70 l 1,19,20
 321 29 321 29 284 8.5 c 128,-1,21
 247 -12 247 -12 192 -12 c 0,22,0
 122 -12 122 -12 88 23 c 128,-1,1
EndSplineSet
EndChar
StartChar: v
Encoding: 118 118 207
Width: 632
GlyphClass: 2
Flags: W
AnchorPoint: "Anchor-1" 369 496 basechar 0
AnchorPoint: "Anchor-0" 263 0 basechar 0
LayerCount: 2
Fore
SplineSet
98 496 m 1,0,-1
 262 496 l 1,1,-1
 293 166 l 1,2,-1
 297 166 l 1,3,-1
 468 496 l 1,4,-1
 640 496 l 1,5,-1
 355 0 l 1,6,-1
 170 0 l 1,7,-1
 98 496 l 1,0,-1
EndSplineSet
EndChar
StartChar: w
Encoding: 119 119 208
Width: 632
GlyphClass: 2
Flags: W
AnchorPoint: "Anchor-1" 366 496 basechar 0
AnchorPoint: "Anchor-0" 264 0 basechar 0
LayerCount: 2
Fore
SplineSet
66 496 m 1,0,-1
 194 496 l 1,1,-1
 182 165 l 1,2,-1
 186 165 l 1,3,-1
 302 496 l 1,4,-1
 433 496 l 1,5,-1
 409 165 l 1,6,-1
 413 165 l 1,7,-1
 540 496 l 1,8,-1
 672 496 l 1,9,-1
 466 0 l 1,10,-1
 317 0 l 1,11,-1
 333 326 l 1,12,-1
 329 326 l 1,13,-1
 209 0 l 1,14,-1
 60 0 l 1,15,-1
 66 496 l 1,0,-1
EndSplineSet
EndChar
StartChar: y
Encoding: 121 121 214
Width: 632
GlyphClass: 2
Flags: W
AnchorPoint: "Anchor-1" 359 496 basechar 0
AnchorPoint: "Anchor-0" 264 0 basechar 0
LayerCount: 2
Fore
SplineSet
12 -43 m 1,0,-1
 84 -43 l 2,1,2
 126 -43 126 -43 146.5 -35.5 c 128,-1,3
 167 -28 167 -28 178 -8 c 2,4,-1
 188 10 l 1,5,-1
 98 496 l 1,6,-1
 269 496 l 1,7,-1
 300 196 l 1,8,-1
 304 196 l 1,9,-1
 460 496 l 1,10,-1
 640 496 l 1,11,-1
 338 2 l 2,12,13
 296 -67 296 -67 265 -100.5 c 128,-1,14
 234 -134 234 -134 193.5 -148 c 128,-1,15
 153 -162 153 -162 85 -162 c 2,16,-1
 -14 -162 l 1,17,-1
 12 -43 l 1,0,-1
EndSplineSet
EndChar
StartChar: z
Encoding: 122 122 219
Width: 632
GlyphClass: 2
Flags: W
AnchorPoint: "Anchor-1" 380 496 basechar 0
AnchorPoint: "Anchor-0" 263 0 basechar 0
LayerCount: 2
Fore
SplineSet
44 129 m 1,0,-1
 346 367 l 1,1,-1
 110 367 l 1,2,-1
 138 496 l 1,3,-1
 611 496 l 1,4,-1
 583 367 l 1,5,-1
 281 129 l 1,6,-1
 548 129 l 1,7,-1
 520 0 l 1,8,-1
 16 0 l 1,9,-1
 44 129 l 1,0,-1
EndSplineSet
EndChar
StartChar: exclamdown
Encoding: 161 161 255
Width: 632
GlyphClass: 1
Flags: W
LayerCount: 2
Fore
SplineSet
177 3 m 1,0,-1
 261 247 l 1,1,-1
 372 247 l 1,2,-1
 353 3 l 1,3,-1
 316 -170 l 1,4,-1
 140 -170 l 1,5,-1
 177 3 l 1,0,-1
277 333.5 m 128,-1,7
 247 364 247 364 247 407 c 0,8,9
 247 449 247 449 277 479.5 c 128,-1,10
 307 510 307 510 350 510 c 256,11,12
 393 510 393 510 423.5 479.5 c 128,-1,13
 454 449 454 449 454 407 c 0,14,15
 454 364 454 364 423.5 333.5 c 128,-1,16
 393 303 393 303 350 303 c 256,17,6
 307 303 307 303 277 333.5 c 128,-1,7
EndSplineSet
EndChar
StartChar: cent
Encoding: 162 162 302
Width: 632
GlyphClass: 1
Flags: W
LayerCount: 2
Fore
SplineSet
127.5 62.5 m 128,-1,1
 81 116 81 116 81 204 c 0,2,3
 81 286 81 286 115 355 c 128,-1,4
 149 424 149 424 213 466.5 c 128,-1,5
 277 509 277 509 363 510 c 1,6,-1
 379 586 l 1,7,-1
 457 586 l 1,8,-1
 439 502 l 1,9,10
 492 490 492 490 530 458 c 128,-1,11
 568 426 568 426 585 373 c 1,12,-1
 449 329 l 1,13,14
 439 363 439 363 412 376 c 1,15,-1
 357 114 l 1,16,17
 397 120 397 120 419 157 c 1,18,-1
 552 104 l 1,19,20
 514 50 514 50 455.5 20 c 128,-1,21
 397 -10 397 -10 330 -13 c 1,22,-1
 313 -90 l 1,23,-1
 235 -90 l 1,24,-1
 253 -7 l 1,25,0
 174 9 174 9 127.5 62.5 c 128,-1,1
268 310.5 m 128,-1,27
 246 259 246 259 246 209 c 0,28,29
 246 151 246 151 282 128 c 1,30,-1
 335 378 l 1,31,26
 290 362 290 362 268 310.5 c 128,-1,27
EndSplineSet
EndChar
StartChar: yen
Encoding: 165 165 308
Width: 632
GlyphClass: 1
Flags: W
LayerCount: 2
Fore
SplineSet
195 73 m 1,0,-1
 70 73 l 1,1,-1
 86 151 l 1,2,-1
 211 151 l 1,3,-1
 224 210 l 1,4,-1
 99 210 l 1,5,-1
 115 288 l 1,6,-1
 225 288 l 1,7,-1
 93 668 l 1,8,-1
 292 668 l 1,9,-1
 352 429 l 1,10,-1
 356 429 l 1,11,-1
 519 668 l 1,12,-1
 717 668 l 1,13,-1
 423 288 l 1,14,-1
 535 288 l 1,15,-1
 519 210 l 1,16,-1
 391 210 l 1,17,-1
 378 151 l 1,18,-1
 506 151 l 1,19,-1
 490 73 l 1,20,-1
 362 73 l 1,21,-1
 347 0 l 1,22,-1
 180 0 l 1,23,-1
 195 73 l 1,0,-1
EndSplineSet
EndChar
StartChar: section
Encoding: 167 167 291
Width: 632
GlyphClass: 1
Flags: W
LayerCount: 2
Fore
SplineSet
116 -137.5 m 128,-1,1
 61 -102 61 -102 43 -29 c 1,2,-1
 183 19 l 1,3,4
 187 -16 187 -16 209 -32 c 128,-1,5
 231 -48 231 -48 265 -48 c 0,6,7
 293 -48 293 -48 310 -37 c 128,-1,8
 327 -26 327 -26 327 -8 c 0,9,10
 327 5 327 5 313.5 18.5 c 128,-1,11
 300 32 300 32 266 54 c 2,12,-1
 169 118 l 2,13,14
 112 155 112 155 83.5 193.5 c 128,-1,15
 55 232 55 232 55 279 c 0,16,17
 55 371 55 371 162 435 c 1,18,19
 148 465 148 465 148 494 c 0,20,21
 148 550 148 550 179 592.5 c 128,-1,22
 210 635 210 635 263.5 657.5 c 128,-1,23
 317 680 317 680 382 680 c 0,24,25
 463 680 463 680 518 644.5 c 128,-1,26
 573 609 573 609 591 536 c 1,27,-1
 451 489 l 1,28,29
 447 524 447 524 425 539.5 c 128,-1,30
 403 555 403 555 369 555 c 0,31,32
 342 555 342 555 324.5 544 c 128,-1,33
 307 533 307 533 307 515 c 0,34,35
 307 502 307 502 320.5 488.5 c 128,-1,36
 334 475 334 475 368 453 c 2,37,-1
 465 389 l 2,38,39
 522 352 522 352 550.5 313.5 c 128,-1,40
 579 275 579 275 579 228 c 0,41,42
 579 136 579 136 472 72 c 1,43,44
 486 42 486 42 486 13 c 0,45,46
 486 -43 486 -43 455 -85.5 c 128,-1,47
 424 -128 424 -128 370.5 -150.5 c 128,-1,48
 317 -173 317 -173 252 -173 c 0,49,0
 171 -173 171 -173 116 -137.5 c 128,-1,1
417 203 m 0,51,52
 417 220 417 220 406 233.5 c 128,-1,53
 395 247 395 247 372 262 c 2,54,-1
 247 346 l 1,55,56
 217 328 217 328 217 304 c 0,57,58
 217 287 217 287 228 273.5 c 128,-1,59
 239 260 239 260 262 245 c 2,60,-1
 387 161 l 1,61,50
 417 179 417 179 417 203 c 0,51,52
EndSplineSet
EndChar
StartChar: ordfeminine
Encoding: 170 170 223
Width: 632
GlyphClass: 1
Flags: W
LayerCount: 2
Fore
SplineSet
222 359 m 128,-1,1
 185 383 185 383 185 430 c 0,2,3
 185 504 185 504 254.5 532 c 128,-1,4
 324 560 324 560 433 565 c 1,5,6
 434 570 434 570 434 578 c 0,7,8
 434 597 434 597 422 605 c 128,-1,9
 410 613 410 613 387 613 c 0,10,11
 347 613 347 613 332 584 c 1,12,-1
 237 620 l 1,13,14
 257 655 257 655 296 674 c 128,-1,15
 335 693 335 693 389 693 c 0,16,17
 466 693 466 693 506.5 666.5 c 128,-1,18
 547 640 547 640 547 579 c 0,19,20
 547 557 547 557 543 537 c 2,21,-1
 527 464 l 2,22,23
 519 427 519 427 515 401.5 c 128,-1,24
 511 376 511 376 509 343 c 1,25,-1
 411 343 l 1,26,-1
 408 372 l 1,27,28
 394 357 394 357 368 346 c 128,-1,29
 342 335 342 335 312 335 c 0,30,0
 259 335 259 335 222 359 c 128,-1,1
391.5 430 m 128,-1,32
 412 445 412 445 417 470 c 2,33,-1
 422 494 l 1,34,35
 301 489 301 489 301 445 c 0,36,37
 301 429 301 429 313.5 422 c 128,-1,38
 326 415 326 415 345 415 c 0,39,31
 371 415 371 415 391.5 430 c 128,-1,32
EndSplineSet
EndChar
StartChar: logicalnot
Encoding: 172 172 323
Width: 632
GlyphClass: 1
Flags: W
LayerCount: 2
Fore
SplineSet
446 291 m 1,0,-1
 68 291 l 1,1,-1
 97 427 l 1,2,-1
 611 427 l 1,3,-1
 531 51 l 1,4,-1
 395 51 l 1,5,-1
 446 291 l 1,0,-1
EndSplineSet
EndChar
StartChar: degree
Encoding: 176 176 295
Width: 632
GlyphClass: 1
Flags: W
LayerCount: 2
Fore
SplineSet
289 367.5 m 128,-1,1
 251 390 251 390 228.5 428.5 c 128,-1,2
 206 467 206 467 206 512 c 256,3,4
 206 557 206 557 228.5 595.5 c 128,-1,5
 251 634 251 634 289 656.5 c 128,-1,6
 327 679 327 679 372 679 c 0,7,8
 418 679 418 679 456 656.5 c 128,-1,9
 494 634 494 634 516.5 595.5 c 128,-1,10
 539 557 539 557 539 512 c 256,11,12
 539 467 539 467 516.5 428.5 c 128,-1,13
 494 390 494 390 456 367.5 c 128,-1,14
 418 345 418 345 372 345 c 0,15,0
 327 345 327 345 289 367.5 c 128,-1,1
424 460.5 m 128,-1,17
 445 482 445 482 445 512 c 256,18,19
 445 542 445 542 424 563.5 c 128,-1,20
 403 585 403 585 372 585 c 0,21,22
 342 585 342 585 320.5 563.5 c 128,-1,23
 299 542 299 542 299 512 c 256,24,25
 299 482 299 482 320.5 460.5 c 128,-1,26
 342 439 342 439 372 439 c 0,27,16
 403 439 403 439 424 460.5 c 128,-1,17
EndSplineSet
EndChar
StartChar: threequarters
Encoding: 190 190 243
Width: 632
GlyphClass: 3
Flags: W
LayerCount: 2
Fore
SplineSet
527 668 m 1,0,-1
 657 668 l 1,1,-1
 165 0 l 1,2,-1
 35 0 l 1,3,-1
 527 668 l 1,0,-1
453 57 m 1,4,-1
 298 57 l 1,5,-1
 315 137 l 1,6,-1
 493 311 l 1,7,-1
 599 311 l 1,8,-1
 563 140 l 1,9,-1
 608 140 l 1,10,-1
 590 57 l 1,11,-1
 545 57 l 1,12,-1
 533 0 l 1,13,-1
 441 0 l 1,14,-1
 453 57 l 1,4,-1
472 140 m 1,15,-1
 486 207 l 1,16,-1
 484 207 l 1,17,-1
 418 140 l 1,18,-1
 472 140 l 1,15,-1
99.5 374.5 m 128,-1,20
 62 391 62 391 48 426 c 1,21,-1
 139 456 l 1,22,23
 148 433 148 433 182 433 c 0,24,25
 195 433 195 433 205 440 c 128,-1,26
 215 447 215 447 215 457 c 0,27,28
 215 480 215 480 154 479 c 1,29,-1
 172 560 l 1,30,-1
 188 559 l 2,31,32
 212 559 212 559 224 566.5 c 128,-1,33
 236 574 236 574 236 587 c 0,34,35
 236 596 236 596 227.5 601 c 128,-1,36
 219 606 219 606 207 606 c 0,37,38
 194 606 194 606 183 601 c 128,-1,39
 172 596 172 596 165 588 c 1,40,-1
 81 623 l 1,41,42
 101 653 101 653 133 666.5 c 128,-1,43
 165 680 165 680 213 680 c 0,44,45
 266 680 266 680 301 656.5 c 128,-1,46
 336 633 336 633 336 594 c 0,47,48
 336 571 336 571 320.5 548.5 c 128,-1,49
 305 526 305 526 284 518 c 1,50,51
 299 510 299 510 308 495.5 c 128,-1,52
 317 481 317 481 317 463 c 0,53,54
 317 418 317 418 275 388 c 128,-1,55
 233 358 233 358 177 358 c 0,56,19
 137 358 137 358 99.5 374.5 c 128,-1,20
EndSplineSet
Ligature2: "'frac' Diagonal Fractions in Latin lookup 7 subtable" three slash four
EndChar
StartChar: AE
Encoding: 198 198 12
Width: 632
GlyphClass: 2
Flags: W
AnchorPoint: "Anchor-1" 438 668 basechar 0
AnchorPoint: "Anchor-0" 296 0 basechar 0
LayerCount: 2
Fore
SplineSet
308 668 m 1,0,-1
 717 668 l 1,1,-1
 689 539 l 1,2,-1
 499 539 l 1,3,-1
 472 408 l 1,4,-1
 567 408 l 1,5,-1
 539 279 l 1,6,-1
 444 279 l 1,7,-1
 413 129 l 1,8,-1
 603 129 l 1,9,-1
 575 0 l 1,10,-1
 256 0 l 1,11,-1
 282 124 l 1,12,-1
 159 124 l 1,13,-1
 95 0 l 1,14,-1
 -48 0 l 1,15,-1
 308 668 l 1,0,-1
307 241 m 1,16,-1
 368 530 l 1,17,-1
 364 530 l 1,18,-1
 217 241 l 1,19,-1
 307 241 l 1,16,-1
EndSplineSet
EndChar
StartChar: Ccedilla
Encoding: 199 199 17
Width: 632
GlyphClass: 2
Flags: W
AnchorPoint: "Anchor-1" 428 668 basechar 0
LayerCount: 2
Fore
SplineSet
174 -168 m 1,1,-1
 200 -118 l 1,2,3
 210 -124 210 -124 230 -130 c 128,-1,4
 250 -136 250 -136 268 -136 c 0,5,6
 283 -136 283 -136 293.5 -129 c 128,-1,7
 304 -122 304 -122 304 -108 c 0,8,9
 304 -98 304 -98 296 -91.5 c 128,-1,10
 288 -85 288 -85 275 -85 c 256,11,12
 262 -85 262 -85 250 -87 c 256,13,14
 238 -89 238 -89 231.5 -84.5 c 128,-1,15
 225 -80 225 -80 225 -71 c 0,16,17
 225 -61 225 -61 232 -53 c 2,18,-1
 268 -9 l 1,19,20
 167 4 167 4 115.5 75.5 c 128,-1,21
 64 147 64 147 64 256 c 0,22,23
 64 353 64 353 101.5 451.5 c 128,-1,24
 139 550 139 550 215.5 615 c 128,-1,25
 292 680 292 680 402 680 c 0,26,27
 487 680 487 680 544 637 c 128,-1,28
 601 594 601 594 622 516 c 1,29,-1
 489 470 l 1,30,31
 480 507 480 507 457.5 526.5 c 128,-1,32
 435 546 435 546 400 546 c 0,33,34
 343 546 343 546 304 498.5 c 128,-1,35
 265 451 265 451 246.5 385 c 128,-1,36
 228 319 228 319 228 265 c 0,37,38
 228 202 228 202 254 162 c 128,-1,39
 280 122 280 122 334 122 c 0,40,41
 363 122 363 122 392 138 c 128,-1,42
 421 154 421 154 444 195 c 1,43,-1
 572 142 l 1,44,45
 528 73 528 73 463.5 32.5 c 128,-1,46
 399 -8 399 -8 325 -12 c 1,47,-1
 296 -47 l 1,48,49
 301 -46 301 -46 311 -46 c 0,50,51
 350 -46 350 -46 377 -62.5 c 128,-1,52
 404 -79 404 -79 404 -108 c 0,53,54
 404 -149 404 -149 370 -168.5 c 128,-1,55
 336 -188 336 -188 283 -188 c 0,56,0
 223 -188 223 -188 174 -168 c 1,1,-1
EndSplineSet
EndChar
StartChar: multiply
Encoding: 215 215 313
Width: 632
GlyphClass: 1
Flags: W
LayerCount: 2
Fore
SplineSet
60 122 m 1,0,-1
 222 255 l 1,1,-1
 113 389 l 1,2,-1
 223 479 l 1,3,-1
 329 340 l 1,4,-1
 493 479 l 1,5,-1
 576 374 l 1,6,-1
 410 241 l 1,7,-1
 517 107 l 1,8,-1
 406 19 l 1,9,-1
 304 153 l 1,10,-1
 144 19 l 1,11,-1
 60 122 l 1,0,-1
EndSplineSet
EndChar
StartChar: Oslash
Encoding: 216 216 68
Width: 632
GlyphClass: 2
Flags: W
AnchorPoint: "Anchor-3" 691 668 basechar 0
AnchorPoint: "Anchor-2" 506 10 basechar 0
AnchorPoint: "Anchor-1" 406 668 basechar 0
AnchorPoint: "Anchor-0" 264 0 basechar 0
LayerCount: 2
Fore
SplineSet
126 42 m 1,1,-1
 77 -13 l 1,2,-1
 18 37 l 1,3,-1
 78 105 l 1,4,5
 48 165 48 165 48 251 c 0,6,7
 48 352 48 352 84.5 451 c 128,-1,8
 121 550 121 550 195 615 c 128,-1,9
 269 680 269 680 377 680 c 0,10,11
 481 680 481 680 543 626 c 1,12,-1
 591 680 l 1,13,-1
 650 630 l 1,14,-1
 590 563 l 1,15,16
 620 502 620 502 620 417 c 0,17,18
 620 316 620 316 583.5 217 c 128,-1,19
 547 118 547 118 473 53 c 128,-1,20
 399 -12 399 -12 291 -12 c 0,21,0
 186 -12 186 -12 126 42 c 1,1,-1
387 171 m 128,-1,23
 423 220 423 220 441 288.5 c 128,-1,24
 459 357 459 357 459 412 c 2,25,-1
 459 415 l 1,26,-1
 229 159 l 1,27,28
 252 122 252 122 299 122 c 0,29,22
 351 122 351 122 387 171 c 128,-1,23
369 546 m 0,31,32
 316 546 316 546 280.5 496.5 c 128,-1,33
 245 447 245 447 227.5 378.5 c 128,-1,34
 210 310 210 310 209 254 c 2,35,-1
 209 252 l 1,36,-1
 439 509 l 1,37,30
 416 546 416 546 369 546 c 0,31,32
EndSplineSet
EndChar
StartChar: Thorn
Encoding: 222 222 72
Width: 632
GlyphClass: 2
Flags: W
AnchorPoint: "Anchor-1" 414 668 basechar 0
AnchorPoint: "Anchor-0" 272 0 basechar 0
LayerCount: 2
Fore
SplineSet
155 668 m 1,0,-1
 310 668 l 1,1,-1
 288 564 l 1,2,-1
 384 564 l 2,3,4
 493 564 493 564 560 512 c 128,-1,5
 627 460 627 460 627 369 c 0,6,7
 627 297 627 297 594 240 c 128,-1,8
 561 183 561 183 500 151 c 128,-1,9
 439 119 439 119 358 119 c 2,10,-1
 193 119 l 1,11,-1
 168 0 l 1,12,-1
 13 0 l 1,13,-1
 155 668 l 1,0,-1
440.5 282 m 128,-1,15
 467 312 467 312 467 353 c 0,16,17
 467 389 467 389 441 409.5 c 128,-1,18
 415 430 415 430 371 430 c 2,19,-1
 259 430 l 1,20,-1
 221 252 l 1,21,-1
 356 252 l 2,22,14
 414 252 414 252 440.5 282 c 128,-1,15
EndSplineSet
EndChar
StartChar: germandbls
Encoding: 223 223 193
Width: 632
GlyphClass: 1
Flags: W
LayerCount: 2
Fore
SplineSet
252 1 m 1,1,-1
 240 142 l 1,2,3
 285 121 285 121 334 121 c 0,4,5
 384 121 384 121 414 149 c 128,-1,6
 444 177 444 177 444 222 c 0,7,8
 444 269 444 269 406 296 c 128,-1,9
 368 323 368 323 309 323 c 2,10,-1
 307 323 l 1,11,-1
 333 449 l 1,12,13
 353 447 353 447 362 447 c 0,14,15
 442 447 442 447 442 508 c 0,16,17
 442 535 442 535 417 547.5 c 128,-1,18
 392 560 392 560 358 560 c 0,19,20
 313 560 313 560 292 536.5 c 128,-1,21
 271 513 271 513 259 460 c 2,22,-1
 161 0 l 1,23,-1
 -3 0 l 1,24,-1
 100 484 l 2,25,26
 123 590 123 590 184 635 c 128,-1,27
 245 680 245 680 344 680 c 0,28,29
 444 680 444 680 511.5 641 c 128,-1,30
 579 602 579 602 579 524 c 0,31,32
 579 487 579 487 561.5 448.5 c 128,-1,33
 544 410 544 410 510 383 c 1,34,35
 561 362 561 362 586 319.5 c 128,-1,36
 611 277 611 277 611 225 c 0,37,38
 611 163 611 163 582.5 108.5 c 128,-1,39
 554 54 554 54 496 20.5 c 128,-1,40
 438 -13 438 -13 353 -13 c 0,41,0
 311 -13 311 -13 252 1 c 1,1,-1
EndSplineSet
EndChar
StartChar: ae
Encoding: 230 230 122
Width: 632
GlyphClass: 2
Flags: W
AnchorPoint: "Anchor-1" 368 496 basechar 0
AnchorPoint: "Anchor-0" 263 0 basechar 0
LayerCount: 2
Fore
SplineSet
24.5 24 m 128,-1,1
 -8 60 -8 60 -8 113 c 0,2,3
 -8 205 -8 205 55.5 251.5 c 128,-1,4
 119 298 119 298 262 297 c 1,5,-1
 267 321 l 2,6,7
 271 341 271 341 271 353 c 0,8,9
 271 402 271 402 226 402 c 256,10,11
 181 402 181 402 157 346 c 1,12,-1
 64 400 l 1,13,14
 91 450 91 450 137.5 480.5 c 128,-1,15
 184 511 184 511 245 511 c 0,16,17
 331 511 331 511 359 451 c 1,18,19
 410 511 410 511 486 511 c 0,20,21
 560 511 560 511 594 459 c 128,-1,22
 628 407 628 407 628 324 c 0,23,24
 628 266 628 266 614 207 c 1,25,-1
 347 207 l 1,26,27
 346 200 346 200 346 186 c 0,28,29
 346 131 346 131 366.5 112.5 c 128,-1,30
 387 94 387 94 412 94 c 0,31,32
 435 94 435 94 454 106.5 c 128,-1,33
 473 119 473 119 485 140 c 1,34,-1
 582 99 l 1,35,36
 502 -12 502 -12 395 -12 c 0,37,38
 295 -12 295 -12 260 66 c 1,39,40
 234 30 234 30 198 9 c 128,-1,41
 162 -12 162 -12 117 -12 c 0,42,0
 57 -12 57 -12 24.5 24 c 128,-1,1
242 200 m 1,44,-1
 243 207 l 1,45,46
 165 207 165 207 137 188.5 c 128,-1,47
 109 170 109 170 109 138 c 0,48,49
 109 118 109 118 121.5 106 c 128,-1,50
 134 94 134 94 156 94 c 0,51,43
 221 94 221 94 242 200 c 1,44,-1
514 331 m 0,53,54
 514 362 514 362 501.5 381 c 128,-1,55
 489 400 489 400 460 400 c 0,56,57
 427 400 427 400 403.5 371 c 128,-1,58
 380 342 380 342 365 297 c 1,59,-1
 511 297 l 1,60,52
 514 314 514 314 514 331 c 0,53,54
EndSplineSet
EndChar
StartChar: eth
Encoding: 240 240 132
Width: 632
GlyphClass: 1
Flags: W
LayerCount: 2
Fore
SplineSet
156 13 m 128,-1,1
 101 38 101 38 70 85 c 128,-1,2
 39 132 39 132 39 196 c 0,3,4
 39 269 39 269 73.5 327.5 c 128,-1,5
 108 386 108 386 168 419.5 c 128,-1,6
 228 453 228 453 300 453 c 0,7,8
 397 453 397 453 451 397 c 1,9,10
 456 420 456 420 456 438 c 0,11,12
 456 501 456 501 418 544 c 1,13,-1
 346 483 l 1,14,-1
 302 537 l 1,15,-1
 365 588 l 1,16,17
 330 614 330 614 263 621 c 1,18,-1
 289 746 l 1,19,20
 406 733 406 733 476 681 c 1,21,-1
 555 746 l 1,22,-1
 599 692 l 1,23,-1
 531 637 l 1,24,25
 572 595 572 595 590.5 535 c 128,-1,26
 609 475 609 475 609 407 c 0,27,28
 609 309 609 309 574.5 212.5 c 128,-1,29
 540 116 540 116 466 52 c 128,-1,30
 392 -12 392 -12 282 -12 c 0,31,0
 211 -12 211 -12 156 13 c 128,-1,1
379 148.5 m 128,-1,33
 410 188 410 188 410 242 c 0,34,35
 410 281 410 281 389 307 c 128,-1,36
 368 333 368 333 322 333 c 0,37,38
 284 333 284 333 258 312 c 128,-1,39
 232 291 232 291 220 260 c 128,-1,40
 208 229 208 229 208 197 c 0,41,42
 208 158 208 158 228 133.5 c 128,-1,43
 248 109 248 109 296 109 c 0,44,32
 348 109 348 109 379 148.5 c 128,-1,33
EndSplineSet
EndChar
StartChar: oslash
Encoding: 248 248 179
Width: 632
GlyphClass: 2
Flags: W
AnchorPoint: "Anchor-3" 637 496 basechar 0
AnchorPoint: "Anchor-2" 497 10 basechar 0
AnchorPoint: "Anchor-1" 366 496 basechar 0
AnchorPoint: "Anchor-0" 264 0 basechar 0
LayerCount: 2
Fore
SplineSet
139 31 m 1,1,-1
 73 -30 l 1,2,-1
 20 26 l 1,3,-1
 84 85 l 1,4,5
 47 141 47 141 47 213 c 0,6,7
 47 299 47 299 84 367 c 128,-1,8
 121 435 121 435 188.5 473 c 128,-1,9
 256 511 256 511 343 511 c 0,10,11
 432 511 432 511 496 468 c 1,12,-1
 559 526 l 1,13,-1
 612 470 l 1,14,-1
 550 413 l 1,15,16
 587 359 587 359 587 286 c 0,17,18
 587 200 587 200 550 132 c 128,-1,19
 513 64 513 64 445.5 26 c 128,-1,20
 378 -12 378 -12 291 -12 c 0,21,0
 200 -12 200 -12 139 31 c 1,1,-1
368.5 141.5 m 128,-1,23
 396 170 396 170 408 210.5 c 128,-1,24
 420 251 420 251 420 288 c 2,25,-1
 420 292 l 1,26,-1
 244 130 l 1,27,28
 264 113 264 113 298 113 c 0,29,22
 341 113 341 113 368.5 141.5 c 128,-1,23
336 386 m 0,31,32
 293 386 293 386 265.5 357.5 c 128,-1,33
 238 329 238 329 226 288.5 c 128,-1,34
 214 248 214 248 214 211 c 2,35,-1
 214 206 l 1,36,-1
 390 369 l 1,37,30
 370 386 370 386 336 386 c 0,31,32
EndSplineSet
EndChar
StartChar: Aogonek
Encoding: 260 260 9
Width: 632
GlyphClass: 2
Flags: W
AnchorPoint: "Anchor-1" 405 668 basechar 0
LayerCount: 2
Fore
SplineSet
316 668 m 1,0,-1
 494 668 l 1,1,-1
 548 0 l 1,2,3
 511 -2 511 -2 474 -23.5 c 128,-1,4
 437 -45 437 -45 437 -67 c 0,5,6
 437 -81 437 -81 449.5 -88 c 128,-1,7
 462 -95 462 -95 482 -95 c 0,8,9
 500 -95 500 -95 528 -91 c 1,10,-1
 511 -172 l 1,11,12
 495 -176 495 -176 469 -176 c 0,13,14
 401 -176 401 -176 348.5 -154.5 c 128,-1,15
 296 -133 296 -133 296 -90 c 0,16,17
 296 -57 296 -57 326 -32 c 128,-1,18
 356 -7 356 -7 398 7 c 1,19,-1
 392 114 l 1,20,-1
 187 114 l 1,21,-1
 132 0 l 1,22,-1
 -22 0 l 1,23,-1
 316 668 l 1,0,-1
385 251 m 1,24,-1
 372 496 l 1,25,-1
 368 496 l 1,26,-1
 251 251 l 1,27,-1
 385 251 l 1,24,-1
EndSplineSet
EndChar
StartChar: aogonek
Encoding: 261 261 119
Width: 632
GlyphClass: 2
Flags: W
AnchorPoint: "Anchor-1" 369 496 basechar 0
LayerCount: 2
Fore
SplineSet
312.5 -154.5 m 128,-1,1
 260 -133 260 -133 260 -89 c 0,2,3
 260 -56 260 -56 289.5 -31 c 128,-1,4
 319 -6 319 -6 362 11 c 1,5,-1
 358 47 l 1,6,7
 298 -12 298 -12 203 -12 c 0,8,9
 129 -12 129 -12 81 24 c 128,-1,10
 33 60 33 60 33 121 c 0,11,12
 33 218 33 218 124 262.5 c 128,-1,13
 215 307 215 307 407 315 c 1,14,-1
 408 319 l 2,15,16
 411 331 411 331 411 342 c 0,17,18
 411 371 411 371 391 387.5 c 128,-1,19
 371 404 371 404 334 404 c 0,20,21
 302 404 302 404 275.5 388 c 128,-1,22
 249 372 249 372 239 347 c 1,23,-1
 103 398 l 1,24,25
 133 449 133 449 195 480 c 128,-1,26
 257 511 257 511 337 511 c 0,27,28
 441 511 441 511 502 469 c 128,-1,29
 563 427 563 427 563 346 c 0,30,31
 563 316 563 316 556 287 c 2,32,-1
 534 185 l 2,33,34
 523 131 523 131 517 79.5 c 128,-1,35
 511 28 511 28 513 0 c 1,36,37
 465 -7 465 -7 433.5 -26 c 128,-1,38
 402 -45 402 -45 402 -67 c 0,39,40
 402 -81 402 -81 414.5 -88 c 128,-1,41
 427 -95 427 -95 447 -95 c 0,42,43
 472 -95 472 -95 492 -91 c 1,44,-1
 476 -172 l 1,45,46
 460 -176 460 -176 434 -176 c 0,47,0
 365 -176 365 -176 312.5 -154.5 c 128,-1,1
337.5 119 m 128,-1,49
 369 144 369 144 379 189 c 2,50,-1
 387 220 l 1,51,52
 202 213 202 213 202 142 c 0,53,54
 202 120 202 120 220 107 c 128,-1,55
 238 94 238 94 266 94 c 0,56,48
 306 94 306 94 337.5 119 c 128,-1,49
EndSplineSet
EndChar
StartChar: Dcroat
Encoding: 272 272 21
Width: 632
GlyphClass: 1
Flags: W
LayerCount: 2
Fore
SplineSet
67 274 m 1,0,-1
 22 274 l 1,1,-1
 52 413 l 1,2,-1
 97 413 l 1,3,-1
 151 668 l 1,4,-1
 295 668 l 2,5,6
 451 668 451 668 535 600 c 128,-1,7
 619 532 619 532 619 390 c 0,8,9
 619 309 619 309 587 219 c 128,-1,10
 555 129 555 129 477.5 64.5 c 128,-1,11
 400 0 400 0 275 0 c 2,12,-1
 9 0 l 1,13,-1
 67 274 l 1,0,-1
382 174.5 m 128,-1,15
 422 212 422 212 441 270 c 128,-1,16
 460 328 460 328 460 390 c 0,17,18
 460 468 460 468 416 500.5 c 128,-1,19
 372 533 372 533 297 533 c 2,20,-1
 276 533 l 1,21,-1
 251 413 l 1,22,-1
 348 413 l 1,23,-1
 318 274 l 1,24,-1
 221 274 l 1,25,-1
 192 137 l 1,26,-1
 281 137 l 2,27,14
 342 137 342 137 382 174.5 c 128,-1,15
EndSplineSet
EndChar
StartChar: Eogonek
Encoding: 280 280 31
Width: 632
GlyphClass: 2
Flags: W
AnchorPoint: "Anchor-1" 291 668 basechar 0
LayerCount: 2
Fore
SplineSet
177 668 m 1,0,-1
 650 668 l 1,1,-1
 618 519 l 1,2,-1
 315 519 l 1,3,-1
 293 418 l 1,4,-1
 467 418 l 1,5,-1
 435 269 l 1,6,-1
 262 269 l 1,7,-1
 236 149 l 1,8,-1
 544 149 l 1,9,-1
 512 0 l 1,10,11
 475 -2 475 -2 438 -23.5 c 128,-1,12
 401 -45 401 -45 401 -67 c 0,13,14
 401 -81 401 -81 413.5 -88 c 128,-1,15
 426 -95 426 -95 446 -95 c 0,16,17
 464 -95 464 -95 492 -91 c 1,18,-1
 475 -172 l 1,19,20
 459 -176 459 -176 433 -176 c 0,21,22
 365 -176 365 -176 312.5 -154.5 c 128,-1,23
 260 -133 260 -133 260 -90 c 0,24,25
 260 -36 260 -36 343 0 c 1,26,-1
 35 0 l 1,27,-1
 177 668 l 1,0,-1
EndSplineSet
EndChar
StartChar: eogonek
Encoding: 281 281 141
Width: 632
GlyphClass: 2
Flags: W
AnchorPoint: "Anchor-1" 261 496 basechar 0
LayerCount: 2
Fore
SplineSet
280.5 -152 m 128,-1,1
 230 -130 230 -130 230 -83 c 0,2,3
 230 -45 230 -45 270 -10 c 1,4,5
 174 0 174 0 115 59 c 128,-1,6
 56 118 56 118 56 214 c 0,7,8
 56 297 56 297 95.5 365 c 128,-1,9
 135 433 135 433 203 472 c 128,-1,10
 271 511 271 511 353 511 c 0,11,12
 466 511 466 511 526.5 448 c 128,-1,13
 587 385 587 385 587 282 c 0,14,15
 587 247 587 247 579 205 c 1,16,-1
 210 205 l 1,17,18
 215 160 215 160 244 136.5 c 128,-1,19
 273 113 273 113 326 113 c 0,20,21
 382 113 382 113 412 146 c 1,22,-1
 534 96 l 1,23,24
 501 53 501 53 434 15 c 0,25,26
 406 -1 406 -1 388 -21 c 128,-1,27
 370 -41 370 -41 370 -61 c 0,28,29
 370 -77 370 -77 382.5 -86 c 128,-1,30
 395 -95 395 -95 417 -95 c 0,31,32
 435 -95 435 -95 459 -91 c 1,33,-1
 442 -172 l 1,34,35
 427 -174 427 -174 406 -174 c 0,36,0
 331 -174 331 -174 280.5 -152 c 128,-1,1
421 366.5 m 128,-1,38
 395 391 395 391 347 391 c 0,39,40
 300 391 300 391 269 366 c 128,-1,41
 238 341 238 341 223 301 c 1,42,-1
 447 301 l 1,43,37
 447 342 447 342 421 366.5 c 128,-1,38
EndSplineSet
EndChar
StartChar: uni0123
Encoding: 291 291 145
Width: 632
GlyphClass: 2
Flags: W
AnchorPoint: "Anchor-1" 435 774 basechar 0
AnchorPoint: "Anchor-0" 218 -251 basechar 0
LayerCount: 2
Fore
SplineSet
121.5 -177 m 128,-1,1
 59 -149 59 -149 32 -87 c 1,2,-1
 162 -33 l 1,3,4
 178 -60 178 -60 206 -71 c 128,-1,5
 234 -82 234 -82 263 -82 c 0,6,7
 298 -82 298 -82 325 -63 c 128,-1,8
 352 -44 352 -44 361 0 c 2,9,-1
 380 87 l 1,10,11
 306 20 306 20 217 20 c 0,12,13
 164 20 164 20 124.5 48 c 128,-1,14
 85 76 85 76 64 123 c 128,-1,15
 43 170 43 170 43 227 c 0,16,17
 43 302 43 302 73.5 367 c 128,-1,18
 104 432 104 432 161.5 471.5 c 128,-1,19
 219 511 219 511 296 511 c 0,20,21
 343 511 343 511 385.5 488.5 c 128,-1,22
 428 466 428 466 449 426 c 1,23,-1
 486 496 l 1,24,-1
 629 496 l 1,25,-1
 528 16 l 2,26,27
 481 -205 481 -205 263 -205 c 0,28,0
 184 -205 184 -205 121.5 -177 c 128,-1,1
377 173.5 m 128,-1,30
 409 201 409 201 422 259 c 0,31,32
 426 276 426 276 426 296 c 0,33,34
 426 339 426 339 401.5 362.5 c 128,-1,35
 377 386 377 386 335 386 c 0,36,37
 291 386 291 386 263.5 363 c 128,-1,38
 236 340 236 340 224 307.5 c 128,-1,39
 212 275 212 275 212 244 c 0,40,41
 212 200 212 200 235 173 c 128,-1,42
 258 146 258 146 303 146 c 0,43,29
 345 146 345 146 377 173.5 c 128,-1,30
297 659 m 0,45,46
 297 718 297 718 347 746 c 128,-1,47
 397 774 397 774 467 774 c 0,48,49
 486 774 486 774 496 773 c 1,50,-1
 539 721 l 1,51,52
 494 724 494 724 458.5 711 c 128,-1,53
 423 698 423 698 423 661 c 0,54,55
 423 642 423 642 436.5 627.5 c 128,-1,56
 450 613 450 613 472 604 c 1,57,-1
 368 568 l 1,58,44
 297 604 297 604 297 659 c 0,45,46
EndSplineSet
EndChar
StartChar: iogonek
Encoding: 303 303 156
Width: 632
GlyphClass: 2
Flags: W
AnchorPoint: "Anchor-1" 444 765 basechar 0
LayerCount: 2
Fore
SplineSet
73 123 m 1,0,-1
 235 123 l 1,1,-1
 287 373 l 1,2,-1
 151 373 l 1,3,-1
 178 496 l 1,4,-1
 478 496 l 1,5,-1
 399 123 l 1,6,-1
 561 123 l 1,7,-1
 534 0 l 1,8,9
 487 -7 487 -7 455.5 -26 c 128,-1,10
 424 -45 424 -45 424 -67 c 0,11,12
 424 -81 424 -81 436.5 -88 c 128,-1,13
 449 -95 449 -95 469 -95 c 0,14,15
 492 -95 492 -95 514 -91 c 1,16,-1
 497 -172 l 1,17,18
 481 -176 481 -176 456 -176 c 0,19,20
 387 -176 387 -176 334.5 -154.5 c 128,-1,21
 282 -133 282 -133 282 -89 c 0,22,23
 282 -39 282 -39 359 0 c 1,24,-1
 46 0 l 1,25,-1
 73 123 l 1,0,-1
355.5 603.5 m 128,-1,27
 328 631 328 631 328 671 c 256,28,29
 328 711 328 711 355.5 738 c 128,-1,30
 383 765 383 765 423 765 c 256,31,32
 463 765 463 765 490 738 c 128,-1,33
 517 711 517 711 517 671 c 256,34,35
 517 631 517 631 490 603.5 c 128,-1,36
 463 576 463 576 423 576 c 256,37,26
 383 576 383 576 355.5 603.5 c 128,-1,27
EndSplineSet
EndChar
StartChar: ij
Encoding: 307 307 157
Width: 632
GlyphClass: 1
Flags: W
LayerCount: 2
Fore
SplineSet
241 -33 m 1,0,-1
 287 -33 l 2,1,2
 323 -33 323 -33 335.5 -26 c 128,-1,3
 348 -19 348 -19 354 8 c 2,4,-1
 432 373 l 1,5,-1
 362 373 l 1,6,-1
 388 496 l 1,7,-1
 621 496 l 1,8,-1
 510 -26 l 2,9,10
 498 -85 498 -85 470.5 -114 c 128,-1,11
 443 -143 443 -143 399.5 -152 c 128,-1,12
 356 -161 356 -161 280 -161 c 2,13,-1
 213 -161 l 1,14,-1
 241 -33 l 1,0,-1
118 373 m 1,15,-1
 48 373 l 1,16,-1
 74 496 l 1,17,-1
 308 496 l 1,18,-1
 203 0 l 1,19,-1
 39 0 l 1,20,-1
 118 373 l 1,15,-1
186 603.5 m 128,-1,22
 159 631 159 631 159 671 c 256,23,24
 159 711 159 711 186 738 c 128,-1,25
 213 765 213 765 253 765 c 256,26,27
 293 765 293 765 320.5 738 c 128,-1,28
 348 711 348 711 348 671 c 256,29,30
 348 631 348 631 320.5 603.5 c 128,-1,31
 293 576 293 576 253 576 c 256,32,21
 213 576 213 576 186 603.5 c 128,-1,22
499.5 603.5 m 128,-1,34
 472 631 472 631 472 671 c 256,35,36
 472 711 472 711 499.5 738 c 128,-1,37
 527 765 527 765 567 765 c 256,38,39
 607 765 607 765 634.5 738 c 128,-1,40
 662 711 662 711 662 671 c 256,41,42
 662 631 662 631 634.5 603.5 c 128,-1,43
 607 576 607 576 567 576 c 256,44,33
 527 576 527 576 499.5 603.5 c 128,-1,34
EndSplineSet
EndChar
StartChar: lslash
Encoding: 322 322 166
Width: 632
GlyphClass: 1
Flags: W
LayerCount: 2
Fore
SplineSet
200 23 m 128,-1,1
 159 46 159 46 159 102 c 0,2,3
 159 130 159 130 166 161 c 2,4,-1
 186 250 l 1,5,-1
 122 220 l 1,6,-1
 148 342 l 1,7,-1
 211 373 l 1,8,-1
 256 585 l 1,9,-1
 141 585 l 1,10,-1
 167 708 l 1,11,-1
 446 708 l 1,12,-1
 393 460 l 1,13,-1
 533 528 l 1,14,-1
 507 406 l 1,15,-1
 366 338 l 1,16,-1
 337 199 l 2,17,18
 332 177 332 177 332 166 c 0,19,20
 332 145 332 145 347 136.5 c 128,-1,21
 362 128 362 128 399 128 c 2,22,-1
 558 128 l 1,23,-1
 531 0 l 1,24,-1
 339 0 l 2,25,0
 241 0 241 0 200 23 c 128,-1,1
EndSplineSet
EndChar
StartChar: OE
Encoding: 338 338 70
Width: 632
GlyphClass: 2
Flags: W
AnchorPoint: "Anchor-1" 407 668 basechar 0
AnchorPoint: "Anchor-0" 265 0 basechar 0
LayerCount: 2
Fore
SplineSet
47 48.5 m 128,-1,1
 10 109 10 109 10 207 c 0,2,3
 10 304 10 304 40.5 414.5 c 128,-1,4
 71 525 71 525 133.5 602.5 c 128,-1,5
 196 680 196 680 286 680 c 0,6,7
 358 680 358 680 397 625 c 1,8,-1
 406 668 l 1,9,-1
 718 668 l 1,10,-1
 690 539 l 1,11,-1
 500 539 l 1,12,-1
 473 408 l 1,13,-1
 570 408 l 1,14,-1
 542 279 l 1,15,-1
 445 279 l 1,16,-1
 414 129 l 1,17,-1
 606 129 l 1,18,-1
 578 0 l 1,19,-1
 264 0 l 1,20,-1
 269 21 l 1,21,22
 222 -12 222 -12 168 -12 c 0,23,0
 84 -12 84 -12 47 48.5 c 128,-1,1
283.5 171.5 m 128,-1,25
 316 236 316 236 333 320.5 c 128,-1,26
 350 405 350 405 350 458 c 0,27,28
 350 561 350 561 288 561 c 0,29,30
 242 561 242 561 209 494.5 c 128,-1,31
 176 428 176 428 159 342.5 c 128,-1,32
 142 257 142 257 142 207 c 0,33,34
 142 107 142 107 205 107 c 0,35,24
 251 107 251 107 283.5 171.5 c 128,-1,25
EndSplineSet
EndChar
StartChar: oe
Encoding: 339 339 181
Width: 632
GlyphClass: 2
Flags: W
AnchorPoint: "Anchor-1" 376 496 basechar 0
AnchorPoint: "Anchor-0" 271 0 basechar 0
LayerCount: 2
Fore
SplineSet
281 54 m 1,1,2
 227 -12 227 -12 154 -12 c 0,3,4
 80 -12 80 -12 46 37.5 c 128,-1,5
 12 87 12 87 12 168 c 0,6,7
 12 240 12 240 35.5 319.5 c 128,-1,8
 59 399 59 399 110 455 c 128,-1,9
 161 511 161 511 237 511 c 0,10,11
 321 511 321 511 354 440 c 1,12,13
 408 511 408 511 489 511 c 0,14,15
 563 511 563 511 597.5 458 c 128,-1,16
 632 405 632 405 632 320 c 0,17,18
 632 267 632 267 619 207 c 1,19,-1
 363 207 l 1,20,21
 362 198 362 198 362 182 c 0,22,23
 362 136 362 136 378 115 c 128,-1,24
 394 94 394 94 420 94 c 0,25,26
 441 94 441 94 458.5 105.5 c 128,-1,27
 476 117 476 117 487 137 c 1,28,-1
 584 97 l 1,29,30
 545 41 545 41 498 14.5 c 128,-1,31
 451 -12 451 -12 402 -12 c 0,32,0
 316 -12 316 -12 281 54 c 1,1,2
229 143.5 m 128,-1,34
 251 179 251 179 262 227.5 c 128,-1,35
 273 276 273 276 273 313 c 0,36,37
 273 391 273 391 225 391 c 0,38,39
 193 391 193 391 170.5 355.5 c 128,-1,40
 148 320 148 320 136.5 272 c 128,-1,41
 125 224 125 224 125 189 c 0,42,43
 125 153 125 153 136.5 130.5 c 128,-1,44
 148 108 148 108 174 108 c 0,45,33
 207 108 207 108 229 143.5 c 128,-1,34
519 334 m 0,47,48
 519 400 519 400 470 400 c 0,49,50
 412 400 412 400 381 297 c 1,51,-1
 516 297 l 1,52,46
 519 317 519 317 519 334 c 0,47,48
EndSplineSet
EndChar
StartChar: Scedilla
Encoding: 350 350 80
Width: 632
GlyphClass: 2
Flags: W
AnchorPoint: "Anchor-1" 395 668 basechar 0
LayerCount: 2
Fore
SplineSet
161 -168 m 1,1,-1
 187 -118 l 1,2,3
 197 -124 197 -124 217 -130 c 128,-1,4
 237 -136 237 -136 255 -136 c 0,5,6
 270 -136 270 -136 280.5 -129 c 128,-1,7
 291 -122 291 -122 291 -108 c 0,8,9
 291 -98 291 -98 283 -91.5 c 128,-1,10
 275 -85 275 -85 262 -85 c 256,11,12
 249 -85 249 -85 237 -87 c 256,13,14
 225 -89 225 -89 218.5 -84.5 c 128,-1,15
 212 -80 212 -80 212 -71 c 0,16,17
 212 -61 212 -61 219 -53 c 2,18,-1
 255 -10 l 1,19,20
 170 0 170 0 111.5 46 c 128,-1,21
 53 92 53 92 33 164 c 1,22,-1
 188 215 l 1,23,24
 195 174 195 174 232.5 148.5 c 128,-1,25
 270 123 270 123 317 123 c 0,26,27
 358 123 358 123 385 143 c 128,-1,28
 412 163 412 163 412 194 c 0,29,30
 412 240 412 240 316 268 c 2,31,-1
 267 284 l 2,32,33
 188 308 188 308 145.5 350 c 128,-1,34
 103 392 103 392 103 459 c 0,35,36
 103 525 103 525 141.5 575 c 128,-1,37
 180 625 180 625 244 652.5 c 128,-1,38
 308 680 308 680 383 680 c 0,39,40
 473 680 473 680 538.5 640.5 c 128,-1,41
 604 601 604 601 624 527 c 1,42,-1
 471 476 l 1,43,44
 460 507 460 507 431.5 526 c 128,-1,45
 403 545 403 545 363 545 c 0,46,47
 328 545 328 545 301.5 529 c 128,-1,48
 275 513 275 513 275 484 c 0,49,50
 275 463 275 463 291 448 c 128,-1,51
 307 433 307 433 333 425 c 2,52,-1
 394 405 l 2,53,54
 494 372 494 372 539.5 330 c 128,-1,55
 585 288 585 288 585 225 c 0,56,57
 585 161 585 161 549.5 108 c 128,-1,58
 514 55 514 55 452 23 c 128,-1,59
 390 -9 390 -9 312 -12 c 1,60,-1
 283 -47 l 1,61,62
 288 -46 288 -46 298 -46 c 0,63,64
 337 -46 337 -46 364 -62.5 c 128,-1,65
 391 -79 391 -79 391 -108 c 0,66,67
 391 -149 391 -149 357 -168.5 c 128,-1,68
 323 -188 323 -188 270 -188 c 0,69,0
 210 -188 210 -188 161 -168 c 1,1,-1
EndSplineSet
Substitution2: "'locl' Localized Forms in Latin lookup 4 subtable" uni0218
AlternateSubs2: "'aalt' Access All Alternates in Latin lookup 0 subtable" uni0218
EndChar
StartChar: scedilla
Encoding: 351 351 191
Width: 632
GlyphClass: 2
Flags: W
AnchorPoint: "Anchor-1" 360 496 basechar 0
LayerCount: 2
Fore
SplineSet
156 -168 m 1,1,-1
 182 -118 l 1,2,3
 192 -124 192 -124 212 -130 c 128,-1,4
 232 -136 232 -136 250 -136 c 0,5,6
 265 -136 265 -136 275.5 -129 c 128,-1,7
 286 -122 286 -122 286 -108 c 0,8,9
 286 -98 286 -98 278 -91.5 c 128,-1,10
 270 -85 270 -85 257 -85 c 256,11,12
 244 -85 244 -85 232 -87 c 256,13,14
 220 -89 220 -89 213.5 -84.5 c 128,-1,15
 207 -80 207 -80 207 -71 c 0,16,17
 207 -61 207 -61 214 -53 c 2,18,-1
 251 -9 l 1,19,20
 178 0 178 0 123 31 c 128,-1,21
 68 62 68 62 45 118 c 1,22,-1
 184 166 l 1,23,24
 195 134 195 134 232 119 c 128,-1,25
 269 104 269 104 308 104 c 0,26,27
 338 104 338 104 360.5 113 c 128,-1,28
 383 122 383 122 383 144 c 256,29,30
 383 166 383 166 321 184 c 2,31,-1
 236 209 l 2,32,33
 173 228 173 228 137.5 261.5 c 128,-1,34
 102 295 102 295 102 344 c 0,35,36
 102 398 102 398 134.5 435.5 c 128,-1,37
 167 473 167 473 220.5 492 c 128,-1,38
 274 511 274 511 335 511 c 0,39,40
 414 511 414 511 477 482.5 c 128,-1,41
 540 454 540 454 564 389 c 1,42,-1
 427 342 l 1,43,44
 417 372 417 372 387 384 c 128,-1,45
 357 396 357 396 323 396 c 0,46,47
 297 396 297 396 278.5 388 c 128,-1,48
 260 380 260 380 260 361 c 0,49,50
 260 338 260 338 307 324 c 2,51,-1
 398 297 l 2,52,53
 470 275 470 275 506 243.5 c 128,-1,54
 542 212 542 212 542 163 c 0,55,56
 542 107 542 107 509.5 67.5 c 128,-1,57
 477 28 477 28 423.5 8 c 128,-1,58
 370 -12 370 -12 307 -12 c 1,59,-1
 278 -47 l 1,60,61
 283 -46 283 -46 293 -46 c 0,62,63
 332 -46 332 -46 359 -62.5 c 128,-1,64
 386 -79 386 -79 386 -108 c 0,65,66
 386 -149 386 -149 352 -168.5 c 128,-1,67
 318 -188 318 -188 265 -188 c 0,68,0
 205 -188 205 -188 156 -168 c 1,1,-1
EndSplineSet
Substitution2: "'locl' Localized Forms in Latin lookup 4 subtable" uni0219
AlternateSubs2: "'aalt' Access All Alternates in Latin lookup 0 subtable" uni0219
EndChar
StartChar: uni0162
Encoding: 354 354 85
Width: 632
GlyphClass: 2
Flags: W
AnchorPoint: "Anchor-1" 405 668 basechar 0
LayerCount: 2
Fore
SplineSet
289 519 m 1,0,-1
 106 519 l 1,1,-1
 138 668 l 1,2,-1
 672 668 l 1,3,-1
 640 519 l 1,4,-1
 458 519 l 1,5,-1
 347 0 l 1,6,-1
 295 0 l 1,7,-1
 256 -47 l 1,8,9
 261 -46 261 -46 271 -46 c 0,10,11
 310 -46 310 -46 337 -62.5 c 128,-1,12
 364 -79 364 -79 364 -108 c 0,13,14
 364 -149 364 -149 330 -168.5 c 128,-1,15
 296 -188 296 -188 243 -188 c 0,16,17
 183 -188 183 -188 134 -168 c 1,18,-1
 160 -118 l 1,19,20
 170 -124 170 -124 190 -130 c 128,-1,21
 210 -136 210 -136 228 -136 c 0,22,23
 243 -136 243 -136 253.5 -129 c 128,-1,24
 264 -122 264 -122 264 -108 c 0,25,26
 264 -98 264 -98 256 -91.5 c 128,-1,27
 248 -85 248 -85 235 -85 c 256,28,29
 222 -85 222 -85 210 -87 c 256,30,31
 198 -89 198 -89 191.5 -84.5 c 128,-1,32
 185 -80 185 -80 185 -71 c 0,33,34
 185 -61 185 -61 192 -53 c 2,35,-1
 236 0 l 1,36,-1
 179 0 l 1,37,-1
 289 519 l 1,0,-1
EndSplineSet
Substitution2: "'locl' Localized Forms in Latin lookup 4 subtable" uni021A
AlternateSubs2: "'aalt' Access All Alternates in Latin lookup 0 subtable" uni021A
EndChar
StartChar: uni0163
Encoding: 355 355 196
Width: 632
GlyphClass: 2
Flags: W
AnchorPoint: "Anchor-3" 445 554 basechar 0
AnchorPoint: "Anchor-1" 341 496 basechar 0
LayerCount: 2
Fore
SplineSet
148 -168 m 1,1,-1
 174 -118 l 1,2,3
 184 -124 184 -124 204 -130 c 128,-1,4
 224 -136 224 -136 242 -136 c 0,5,6
 257 -136 257 -136 267.5 -129 c 128,-1,7
 278 -122 278 -122 278 -108 c 0,8,9
 278 -98 278 -98 270 -91.5 c 128,-1,10
 262 -85 262 -85 249 -85 c 256,11,12
 236 -85 236 -85 224 -87 c 256,13,14
 212 -89 212 -89 205.5 -84.5 c 128,-1,15
 199 -80 199 -80 199 -71 c 0,16,17
 199 -61 199 -61 206 -53 c 2,18,-1
 255 6 l 1,19,20
 205 14 205 14 182.5 37.5 c 128,-1,21
 160 61 160 61 160 103 c 0,22,23
 160 131 160 131 167 160 c 2,24,-1
 213 373 l 1,25,-1
 115 373 l 1,26,-1
 141 496 l 1,27,-1
 239 496 l 1,28,-1
 265 620 l 1,29,-1
 429 620 l 1,30,-1
 403 496 l 1,31,-1
 604 496 l 1,32,-1
 577 373 l 1,33,-1
 377 373 l 1,34,-1
 337 190 l 2,35,36
 334 178 334 178 334 168 c 0,37,38
 334 146 334 146 350 137 c 128,-1,39
 366 128 366 128 402 128 c 2,40,-1
 475 128 l 1,41,-1
 448 0 l 1,42,-1
 309 0 l 1,43,-1
 270 -47 l 1,44,45
 275 -46 275 -46 285 -46 c 0,46,47
 324 -46 324 -46 351 -62.5 c 128,-1,48
 378 -79 378 -79 378 -108 c 0,49,50
 378 -149 378 -149 344 -168.5 c 128,-1,51
 310 -188 310 -188 257 -188 c 0,52,0
 197 -188 197 -188 148 -168 c 1,1,-1
EndSplineSet
Substitution2: "'locl' Localized Forms in Latin lookup 4 subtable" uni021B
AlternateSubs2: "'aalt' Access All Alternates in Latin lookup 0 subtable" uni021B
EndChar
StartChar: Uring
Encoding: 366 366 95
Width: 632
GlyphClass: 2
Flags: W
AnchorPoint: "Anchor-3" 714 668 basechar 0
AnchorPoint: "Anchor-1" 432 927 basechar 0
LayerCount: 2
Fore
SplineSet
114 37.5 m 128,-1,1
 49 87 49 87 49 193 c 0,2,3
 49 238 49 238 61 295 c 2,4,-1
 140 668 l 1,5,-1
 309 668 l 1,6,-1
 221 254 l 2,7,8
 215 220 215 220 215 206 c 0,9,10
 215 167 215 167 236.5 146 c 128,-1,11
 258 125 258 125 308 125 c 0,12,13
 353 125 353 125 375 152.5 c 128,-1,14
 397 180 397 180 409 234 c 2,15,-1
 501 668 l 1,16,-1
 670 668 l 1,17,-1
 580 240 l 2,18,19
 553 110 553 110 489 49 c 128,-1,20
 425 -12 425 -12 310 -12 c 0,21,0
 179 -12 179 -12 114 37.5 c 128,-1,1
335 671.5 m 128,-1,23
 304 690 304 690 285.5 722 c 128,-1,24
 267 754 267 754 267 791 c 256,25,26
 267 828 267 828 285.5 859.5 c 128,-1,27
 304 891 304 891 335 909 c 128,-1,28
 366 927 366 927 403 927 c 256,29,30
 440 927 440 927 471.5 909 c 128,-1,31
 503 891 503 891 522 859.5 c 128,-1,32
 541 828 541 828 541 791 c 256,33,34
 541 754 541 754 522 722 c 128,-1,35
 503 690 503 690 471.5 671.5 c 128,-1,36
 440 653 440 653 403 653 c 256,37,22
 366 653 366 653 335 671.5 c 128,-1,23
436 758.5 m 128,-1,39
 449 772 449 772 449 791 c 0,40,41
 449 811 449 811 436 824 c 128,-1,42
 423 837 423 837 403 837 c 0,43,44
 384 837 384 837 370.5 823.5 c 128,-1,45
 357 810 357 810 357 791 c 256,46,47
 357 772 357 772 370.5 758.5 c 128,-1,48
 384 745 384 745 403 745 c 0,49,38
 423 745 423 745 436 758.5 c 128,-1,39
EndSplineSet
EndChar
StartChar: Uogonek
Encoding: 370 370 94
Width: 632
GlyphClass: 2
Flags: W
AnchorPoint: "Anchor-3" 714 668 basechar 0
AnchorPoint: "Anchor-1" 404 668 basechar 0
LayerCount: 2
Fore
SplineSet
291.5 -152 m 128,-1,1
 241 -130 241 -130 241 -83 c 0,2,3
 241 -48 241 -48 280 -11 c 1,4,5
 153 -5 153 -5 101 50 c 128,-1,6
 49 105 49 105 49 193 c 0,7,8
 49 237 49 237 61 295 c 2,9,-1
 140 668 l 1,10,-1
 309 668 l 1,11,-1
 221 254 l 2,12,13
 215 220 215 220 215 206 c 0,14,15
 215 167 215 167 236.5 146 c 128,-1,16
 258 125 258 125 308 125 c 0,17,18
 353 125 353 125 375 152.5 c 128,-1,19
 397 180 397 180 409 234 c 2,20,-1
 501 668 l 1,21,-1
 670 668 l 1,22,-1
 580 240 l 2,23,24
 564 165 564 165 532 106 c 128,-1,25
 500 47 500 47 447 19 c 0,26,27
 418 4 418 4 399.5 -18 c 128,-1,28
 381 -40 381 -40 381 -61 c 0,29,30
 381 -77 381 -77 393.5 -86 c 128,-1,31
 406 -95 406 -95 428 -95 c 0,32,33
 446 -95 446 -95 470 -91 c 1,34,-1
 454 -172 l 1,35,36
 439 -174 439 -174 418 -174 c 0,37,0
 342 -174 342 -174 291.5 -152 c 128,-1,1
EndSplineSet
EndChar
StartChar: uogonek
Encoding: 371 371 205
Width: 632
GlyphClass: 2
Flags: W
AnchorPoint: "Anchor-3" 635 496 basechar 0
AnchorPoint: "Anchor-1" 367 496 basechar 0
LayerCount: 2
Fore
SplineSet
88 23 m 128,-1,1
 54 58 54 58 54 123 c 0,2,3
 54 161 54 161 62 196 c 2,4,-1
 126 496 l 1,5,-1
 290 496 l 1,6,-1
 231 220 l 2,7,8
 226 193 226 193 226 176 c 0,9,10
 226 113 226 113 282 113 c 0,11,12
 321 113 321 113 349.5 149 c 128,-1,13
 378 185 378 185 392 251 c 2,14,-1
 444 496 l 1,15,-1
 608 496 l 1,16,-1
 503 0 l 1,17,18
 455 -7 455 -7 423.5 -26 c 128,-1,19
 392 -45 392 -45 392 -67 c 0,20,21
 392 -81 392 -81 404.5 -88 c 128,-1,22
 417 -95 417 -95 437 -95 c 0,23,24
 461 -95 461 -95 483 -91 c 1,25,-1
 466 -172 l 1,26,27
 450 -176 450 -176 424 -176 c 0,28,29
 355 -176 355 -176 303 -154.5 c 128,-1,30
 251 -133 251 -133 251 -89 c 0,31,32
 251 -55 251 -55 282.5 -29 c 128,-1,33
 314 -3 314 -3 359 14 c 1,34,-1
 353 70 l 1,35,36
 321 29 321 29 284 8.5 c 128,-1,37
 247 -12 247 -12 192 -12 c 0,38,0
 122 -12 122 -12 88 23 c 128,-1,1
EndSplineSet
EndChar
StartChar: uni0237
Encoding: 567 567 159
Width: 632
GlyphClass: 2
Flags: W
AnchorPoint: "Anchor-1" 417 496 basechar 0
AnchorPoint: "Anchor-0" 239 -251 basechar 0
LayerCount: 2
Fore
SplineSet
9 -34 m 1,0,-1
 195 -34 l 2,1,2
 217 -34 217 -34 226.5 -26 c 128,-1,3
 236 -18 236 -18 241 3 c 2,4,-1
 318 373 l 1,5,-1
 181 373 l 1,6,-1
 208 496 l 1,7,-1
 509 496 l 1,8,-1
 397 -28 l 2,9,10
 381 -103 381 -103 340.5 -132.5 c 128,-1,11
 300 -162 300 -162 222 -162 c 2,12,-1
 -19 -162 l 1,13,-1
 9 -34 l 1,0,-1
EndSplineSet
EndChar
StartChar: uni0306
Encoding: 774 774 351
Width: 0
GlyphClass: 4
Flags: W
AnchorPoint: "Anchor-5" 410 689 basemark 0
AnchorPoint: "Anchor-5" 369 496 mark 0
AnchorPoint: "Anchor-1" 369 496 mark 0
LayerCount: 2
Fore
SplineSet
297.5 595.5 m 128,-1,1
 263 630 263 630 260 689 c 1,2,-1
 347 689 l 1,3,4
 351 669 351 669 367 658.5 c 128,-1,5
 383 648 383 648 405 648 c 0,6,7
 431 648 431 648 450 661 c 128,-1,8
 469 674 469 674 471 689 c 1,9,-1
 561 689 l 1,10,11
 543 630 543 630 499 595.5 c 128,-1,12
 455 561 455 561 393 561 c 0,13,0
 332 561 332 561 297.5 595.5 c 128,-1,1
EndSplineSet
Substitution2: "Single Substitution lookup 12 subtable" uni0306.case
Substitution2: "'case' Case-Sensitive Forms in Latin lookup 9 subtable" uni0306.case
AlternateSubs2: "'aalt' Access All Alternates in Latin lookup 0 subtable" uni0306.case
EndChar
StartChar: uni0307
Encoding: 775 775 337
Width: 0
GlyphClass: 4
Flags: W
AnchorPoint: "Anchor-5" 418 727 basemark 0
AnchorPoint: "Anchor-5" 368 496 mark 0
AnchorPoint: "Anchor-1" 368 496 mark 0
LayerCount: 2
Fore
SplineSet
345.5 592.5 m 128,-1,1
 322 616 322 616 322 648 c 256,2,3
 322 680 322 680 345.5 703.5 c 128,-1,4
 369 727 369 727 401 727 c 256,5,6
 433 727 433 727 456.5 703.5 c 128,-1,7
 480 680 480 680 480 648 c 256,8,9
 480 616 480 616 456.5 592.5 c 128,-1,10
 433 569 433 569 401 569 c 256,11,0
 369 569 369 569 345.5 592.5 c 128,-1,1
EndSplineSet
Substitution2: "Single Substitution lookup 12 subtable" uni0307.case
Substitution2: "'case' Case-Sensitive Forms in Latin lookup 9 subtable" uni0307.case
AlternateSubs2: "'aalt' Access All Alternates in Latin lookup 0 subtable" uni0307.case
EndChar
StartChar: uni0308
Encoding: 776 776 335
Width: 0
GlyphClass: 4
Flags: W
AnchorPoint: "Anchor-5" 419 727 basemark 0
AnchorPoint: "Anchor-5" 370 496 mark 0
AnchorPoint: "Anchor-1" 370 496 mark 0
LayerCount: 2
Fore
SplineSet
451.5 592.5 m 128,-1,1
 428 616 428 616 428 648 c 256,2,3
 428 680 428 680 451.5 703.5 c 128,-1,4
 475 727 475 727 507 727 c 256,5,6
 539 727 539 727 562 703.5 c 128,-1,7
 585 680 585 680 585 648 c 256,8,9
 585 616 585 616 562 592.5 c 128,-1,10
 539 569 539 569 507 569 c 256,11,0
 475 569 475 569 451.5 592.5 c 128,-1,1
240 592.5 m 128,-1,13
 217 616 217 616 217 648 c 256,14,15
 217 680 217 680 240 703.5 c 128,-1,16
 263 727 263 727 295 727 c 256,17,18
 327 727 327 727 350.5 703.5 c 128,-1,19
 374 680 374 680 374 648 c 256,20,21
 374 616 374 616 350.5 592.5 c 128,-1,22
 327 569 327 569 295 569 c 256,23,12
 263 569 263 569 240 592.5 c 128,-1,13
EndSplineSet
Substitution2: "Single Substitution lookup 12 subtable" uni0308.case
Substitution2: "'case' Case-Sensitive Forms in Latin lookup 9 subtable" uni0308.case
AlternateSubs2: "'aalt' Access All Alternates in Latin lookup 0 subtable" uni0308.case
EndChar
StartChar: uni030A
Encoding: 778 778 353
Width: 0
GlyphClass: 4
Flags: W
AnchorPoint: "Anchor-5" 433 799 basemark 0
AnchorPoint: "Anchor-5" 368 496 mark 0
AnchorPoint: "Anchor-1" 368 496 mark 0
LayerCount: 2
Fore
SplineSet
338.5 554.5 m 128,-1,1
 308 572 308 572 290.5 602 c 128,-1,2
 273 632 273 632 273 668 c 256,3,4
 273 704 273 704 290.5 734 c 128,-1,5
 308 764 308 764 338.5 781.5 c 128,-1,6
 369 799 369 799 405 799 c 256,7,8
 441 799 441 799 471.5 781.5 c 128,-1,9
 502 764 502 764 519.5 734 c 128,-1,10
 537 704 537 704 537 668 c 256,11,12
 537 632 537 632 519.5 602 c 128,-1,13
 502 572 502 572 471.5 554.5 c 128,-1,14
 441 537 441 537 405 537 c 256,15,0
 369 537 369 537 338.5 554.5 c 128,-1,1
438 633.5 m 128,-1,17
 452 648 452 648 452 668 c 256,18,19
 452 688 452 688 438 702.5 c 128,-1,20
 424 717 424 717 405 717 c 256,21,22
 386 717 386 717 372 702.5 c 128,-1,23
 358 688 358 688 358 668 c 256,24,25
 358 648 358 648 372 633.5 c 128,-1,26
 386 619 386 619 405 619 c 256,27,16
 424 619 424 619 438 633.5 c 128,-1,17
EndSplineSet
Substitution2: "Single Substitution lookup 12 subtable" uni030A.case
Substitution2: "'case' Case-Sensitive Forms in Latin lookup 9 subtable" uni030A.case
AlternateSubs2: "'aalt' Access All Alternates in Latin lookup 0 subtable" uni030A.case
EndChar
StartChar: uni030B
Encoding: 779 779 344
Width: 0
GlyphClass: 4
Flags: W
AnchorPoint: "Anchor-5" 474 731 basemark 0
AnchorPoint: "Anchor-5" 328 496 mark 0
AnchorPoint: "Anchor-1" 328 496 mark 0
LayerCount: 2
Fore
SplineSet
329.5 722.5 m 128,-1,1
 345 731 345 731 364 731 c 0,2,3
 390 731 390 731 404.5 718.5 c 128,-1,4
 419 706 419 706 419 686 c 0,5,6
 419 664 419 664 404 647.5 c 128,-1,7
 389 631 389 631 364 616 c 2,8,-1
 299 575 l 1,9,-1
 171 575 l 1,10,-1
 295 696 l 2,11,0
 314 714 314 714 329.5 722.5 c 128,-1,1
546.5 722.5 m 128,-1,13
 562 731 562 731 580 731 c 0,14,15
 606 731 606 731 620.5 718.5 c 128,-1,16
 635 706 635 706 635 686 c 0,17,18
 635 664 635 664 620 647.5 c 128,-1,19
 605 631 605 631 580 616 c 2,20,-1
 515 575 l 1,21,-1
 387 575 l 1,22,-1
 512 696 l 2,23,12
 531 714 531 714 546.5 722.5 c 128,-1,13
EndSplineSet
Substitution2: "Single Substitution lookup 12 subtable" uni030B.case
Substitution2: "'case' Case-Sensitive Forms in Latin lookup 9 subtable" uni030B.case
AlternateSubs2: "'aalt' Access All Alternates in Latin lookup 0 subtable" uni030B.case
EndChar
StartChar: uni0326
Encoding: 806 806 359
Width: 0
GlyphClass: 4
Flags: W
AnchorPoint: "Anchor-4" 211 -251 basemark 0
AnchorPoint: "Anchor-4" 264 0 mark 0
AnchorPoint: "Anchor-0" 264 0 mark 0
LayerCount: 2
Fore
SplineSet
186.5 -188 m 128,-1,1
 222 -175 222 -175 222 -138 c 0,2,3
 222 -119 222 -119 208.5 -104.5 c 128,-1,4
 195 -90 195 -90 174 -81 c 1,5,-1
 277 -45 l 1,6,7
 348 -81 348 -81 348 -136 c 0,8,9
 348 -195 348 -195 298 -223 c 128,-1,10
 248 -251 248 -251 178 -251 c 0,11,12
 159 -251 159 -251 149 -250 c 1,13,-1
 106 -198 l 1,14,0
 151 -201 151 -201 186.5 -188 c 128,-1,1
EndSplineSet
EndChar
StartChar: uni03A9
Encoding: 937 937 226
Width: 632
GlyphClass: 1
Flags: W
LayerCount: 2
Fore
SplineSet
5 120 m 1,0,-1
 130 120 l 1,1,-1
 138 154 l 1,2,3
 96 187 96 187 73 236 c 128,-1,4
 50 285 50 285 50 345 c 0,5,6
 50 435 50 435 93.5 512 c 128,-1,7
 137 589 137 589 212.5 634.5 c 128,-1,8
 288 680 288 680 380 680 c 0,9,10
 457 680 457 680 516 645.5 c 128,-1,11
 575 611 575 611 607.5 552 c 128,-1,12
 640 493 640 493 640 422 c 0,13,14
 640 331 640 331 590.5 258.5 c 128,-1,15
 541 186 541 186 452 147 c 1,16,-1
 445 120 l 1,17,-1
 571 120 l 1,18,-1
 546 0 l 1,19,-1
 282 0 l 1,20,-1
 331 231 l 1,21,22
 379 232 379 232 420 256.5 c 128,-1,23
 461 281 461 281 485 321 c 128,-1,24
 509 361 509 361 509 408 c 0,25,26
 509 478 509 478 467.5 517.5 c 128,-1,27
 426 557 426 557 363 557 c 0,28,29
 314 557 314 557 272.5 531 c 128,-1,30
 231 505 231 505 206 463 c 128,-1,31
 181 421 181 421 181 375 c 0,32,33
 181 323 181 323 211.5 283.5 c 128,-1,34
 242 244 242 244 292 231 c 1,35,-1
 244 0 l 1,36,-1
 -20 0 l 1,37,-1
 5 120 l 1,0,-1
EndSplineSet
EndChar
StartChar: dagger
Encoding: 8224 8224 298
Width: 632
GlyphClass: 1
Flags: W
LayerCount: 2
Fore
SplineSet
266 374 m 1,0,-1
 83 374 l 1,1,-1
 108 496 l 1,2,-1
 291 496 l 1,3,-1
 328 668 l 1,4,-1
 484 668 l 1,5,-1
 447 496 l 1,6,-1
 630 496 l 1,7,-1
 604 374 l 1,8,-1
 421 374 l 1,9,-1
 342 0 l 1,10,-1
 186 0 l 1,11,-1
 266 374 l 1,0,-1
EndSplineSet
EndChar
StartChar: uni2113
Encoding: 8467 8467 299
Width: 632
GlyphClass: 1
Flags: W
LayerCount: 2
Fore
SplineSet
189 25.5 m 128,-1,1
 142 63 142 63 142 130 c 0,2,3
 142 144 142 144 143 151 c 1,4,-1
 69 107 l 1,5,-1
 92 216 l 1,6,-1
 167 263 l 1,7,-1
 209 463 l 2,8,9
 255 680 255 680 424 680 c 0,10,11
 509 680 509 680 551.5 645.5 c 128,-1,12
 594 611 594 611 594 550 c 0,13,14
 594 488 594 488 555 436.5 c 128,-1,15
 516 385 516 385 463.5 349 c 128,-1,16
 411 313 411 313 330 266 c 1,17,-1
 316 199 l 2,18,19
 312 175 312 175 312 164 c 0,20,21
 312 141 312 141 324.5 128.5 c 128,-1,22
 337 116 337 116 367 116 c 0,23,24
 405 116 405 116 441 137 c 1,25,-1
 481 37 l 1,26,27
 408 -12 408 -12 319 -12 c 0,28,0
 236 -12 236 -12 189 25.5 c 128,-1,1
428.5 449.5 m 128,-1,30
 461 492 461 492 461 530 c 0,31,32
 461 549 461 549 452 558 c 128,-1,33
 443 567 443 567 428 567 c 0,34,35
 410 567 410 567 398.5 550 c 128,-1,36
 387 533 387 533 379 498 c 2,37,-1
 353 380 l 1,38,29
 396 407 396 407 428.5 449.5 c 128,-1,30
EndSplineSet
EndChar
StartChar: trademark
Encoding: 8482 8482 294
Width: 632
GlyphClass: 1
Flags: W
LayerCount: 2
Fore
SplineSet
157 588 m 1,0,-1
 76 588 l 1,1,-1
 93 668 l 1,2,-1
 338 668 l 1,3,-1
 321 588 l 1,4,-1
 240 588 l 1,5,-1
 187 343 l 1,6,-1
 104 343 l 1,7,-1
 157 588 l 1,0,-1
360 668 m 1,8,-1
 489 668 l 1,9,-1
 491 463 l 1,10,-1
 495 463 l 1,11,-1
 585 668 l 1,12,-1
 717 668 l 1,13,-1
 647 343 l 1,14,-1
 567 343 l 1,15,-1
 616 572 l 1,16,-1
 612 572 l 1,17,-1
 505 343 l 1,18,-1
 432 343 l 1,19,-1
 423 572 l 1,20,-1
 419 572 l 1,21,-1
 370 343 l 1,22,-1
 290 343 l 1,23,-1
 360 668 l 1,8,-1
EndSplineSet
EndChar
StartChar: estimated
Encoding: 8494 8494 301
Width: 632
GlyphClass: 1
Flags: W
LayerCount: 2
Fore
SplineSet
189.5 24 m 128,-1,1
 129 60 129 60 94.5 119.5 c 128,-1,2
 60 179 60 179 60 248 c 0,3,4
 60 321 60 321 95.5 381.5 c 128,-1,5
 131 442 131 442 191.5 476.5 c 128,-1,6
 252 511 252 511 323 511 c 0,7,8
 393 511 393 511 453 476 c 128,-1,9
 513 441 513 441 548 380.5 c 128,-1,10
 583 320 583 320 583 249 c 1,11,-1
 203 249 l 1,12,-1
 203 109 l 1,13,14
 226 87 226 87 257 75.5 c 128,-1,15
 288 64 288 64 323 64 c 0,16,17
 365 64 365 64 402 82.5 c 128,-1,18
 439 101 439 101 465 134 c 1,19,-1
 540 106 l 1,20,21
 504 52 504 52 446.5 20 c 128,-1,22
 389 -12 389 -12 323 -12 c 0,23,0
 250 -12 250 -12 189.5 24 c 128,-1,1
440 321 m 1,24,-1
 440 390 l 1,25,26
 416 411 416 411 385.5 423 c 128,-1,27
 355 435 355 435 323 435 c 0,28,29
 289 435 289 435 258 423 c 128,-1,30
 227 411 227 411 203 390 c 1,31,-1
 203 321 l 1,32,-1
 440 321 l 1,24,-1
EndSplineSet
EndChar
StartChar: product
Encoding: 8719 8719 328
Width: 632
GlyphClass: 1
Flags: W
LayerCount: 2
Fore
SplineSet
156 668 m 1,0,-1
 654 668 l 1,1,-1
 478 -162 l 1,2,-1
 342 -162 l 1,3,-1
 492 546 l 1,4,-1
 267 546 l 1,5,-1
 116 -162 l 1,6,-1
 -20 -162 l 1,7,-1
 156 668 l 1,0,-1
EndSplineSet
EndChar
StartChar: summation
Encoding: 8721 8721 329
Width: 632
GlyphClass: 1
Flags: W
LayerCount: 2
Fore
SplineSet
-14 -26 m 1,0,-1
 285 266 l 1,1,-1
 105 532 l 1,2,-1
 133 668 l 1,3,-1
 678 668 l 1,4,-1
 649 532 l 1,5,-1
 273 532 l 1,6,-1
 465 254 l 1,7,-1
 178 -26 l 1,8,-1
 530 -26 l 1,9,-1
 502 -162 l 1,10,-1
 -43 -162 l 1,11,-1
 -14 -26 l 1,0,-1
EndSplineSet
EndChar
StartChar: infinity
Encoding: 8734 8734 326
Width: 632
GlyphClass: 1
Flags: W
LayerCount: 2
Fore
SplineSet
55.5 133 m 128,-1,1
 13 170 13 170 13 234 c 0,2,3
 13 283 13 283 36 325 c 128,-1,4
 59 367 59 367 100 391.5 c 128,-1,5
 141 416 141 416 192 416 c 0,6,7
 232 416 232 416 262.5 400.5 c 128,-1,8
 293 385 293 385 325 353 c 1,9,10
 368 385 368 385 401.5 400.5 c 128,-1,11
 435 416 435 416 473 416 c 0,12,13
 536 416 536 416 578.5 379 c 128,-1,14
 621 342 621 342 621 278 c 0,15,16
 621 229 621 229 598 187 c 128,-1,17
 575 145 575 145 534 120.5 c 128,-1,18
 493 96 493 96 442 96 c 0,19,20
 402 96 402 96 371.5 111.5 c 128,-1,21
 341 127 341 127 309 159 c 1,22,23
 266 127 266 127 232.5 111.5 c 128,-1,24
 199 96 199 96 161 96 c 0,25,0
 98 96 98 96 55.5 133 c 128,-1,1
211.5 218.5 m 128,-1,27
 227 228 227 228 251 249 c 1,28,29
 235 278 235 278 222.5 290.5 c 128,-1,30
 210 303 210 303 186 303 c 256,31,32
 162 303 162 303 147.5 286 c 128,-1,33
 133 269 133 269 133 248 c 0,34,35
 133 230 133 230 144.5 219.5 c 128,-1,36
 156 209 156 209 175 209 c 0,37,26
 196 209 196 209 211.5 218.5 c 128,-1,27
486.5 226 m 128,-1,39
 501 243 501 243 501 264 c 0,40,41
 501 282 501 282 489.5 292.5 c 128,-1,42
 478 303 478 303 459 303 c 0,43,44
 438 303 438 303 422.5 293.5 c 128,-1,45
 407 284 407 284 383 263 c 1,46,47
 399 234 399 234 411.5 221.5 c 128,-1,48
 424 209 424 209 448 209 c 256,49,38
 472 209 472 209 486.5 226 c 128,-1,39
EndSplineSet
EndChar
StartChar: integral
Encoding: 8747 8747 327
Width: 632
GlyphClass: 1
Flags: W
LayerCount: 2
Fore
SplineSet
66.5 -152.5 m 128,-1,1
 34 -131 34 -131 34 -93 c 0,2,3
 34 -67 34 -67 52.5 -45.5 c 128,-1,4
 71 -24 71 -24 102 -24 c 0,5,6
 126 -24 126 -24 141 -37 c 128,-1,7
 156 -50 156 -50 156 -74 c 0,8,9
 156 -85 156 -85 151 -102 c 1,10,11
 163 -94 163 -94 170.5 -75.5 c 128,-1,12
 178 -57 178 -57 187 -18 c 2,13,-1
 290 434 l 2,14,15
 319 565 319 565 373.5 622.5 c 128,-1,16
 428 680 428 680 497 680 c 0,17,18
 539 680 539 680 571.5 658.5 c 128,-1,19
 604 637 604 637 604 599 c 0,20,21
 604 573 604 573 585.5 552 c 128,-1,22
 567 531 567 531 536 531 c 0,23,24
 511 531 511 531 496.5 544 c 128,-1,25
 482 557 482 557 482 580 c 0,26,27
 482 591 482 591 487 608 c 1,28,29
 475 600 475 600 467.5 581.5 c 128,-1,30
 460 563 460 563 451 524 c 2,31,-1
 348 72 l 2,32,33
 319 -59 319 -59 264.5 -116.5 c 128,-1,34
 210 -174 210 -174 141 -174 c 0,35,0
 99 -174 99 -174 66.5 -152.5 c 128,-1,1
EndSplineSet
EndChar
StartChar: approxequal
Encoding: 8776 8776 322
Width: 632
GlyphClass: 1
Flags: W
LayerCount: 2
Fore
SplineSet
117.5 201 m 128,-1,1
 155 241 155 241 214 241 c 0,2,3
 241 241 241 241 261 232.5 c 128,-1,4
 281 224 281 224 305 208 c 0,5,6
 325 194 325 194 340 187.5 c 128,-1,7
 355 181 355 181 372 181 c 0,8,9
 418 181 418 181 431 244 c 1,10,-1
 531 203 l 1,11,12
 508 127 508 127 471 87.5 c 128,-1,13
 434 48 434 48 374 48 c 0,14,15
 347 48 347 48 327 56.5 c 128,-1,16
 307 65 307 65 283 81 c 0,17,18
 263 95 263 95 248 101.5 c 128,-1,19
 233 108 233 108 216 108 c 0,20,21
 170 108 170 108 157 45 c 1,22,-1
 57 85 l 1,23,0
 80 161 80 161 117.5 201 c 128,-1,1
162.5 410 m 128,-1,25
 200 450 200 450 259 450 c 0,26,27
 286 450 286 450 306 441.5 c 128,-1,28
 326 433 326 433 350 417 c 0,29,30
 370 403 370 403 385 396.5 c 128,-1,31
 400 390 400 390 417 390 c 0,32,33
 463 390 463 390 476 453 c 1,34,-1
 576 412 l 1,35,36
 553 336 553 336 515.5 296 c 128,-1,37
 478 256 478 256 419 256 c 0,38,39
 392 256 392 256 372 264.5 c 128,-1,40
 352 273 352 273 328 289 c 0,41,42
 308 303 308 303 293 309.5 c 128,-1,43
 278 316 278 316 261 316 c 0,44,45
 215 316 215 316 202 253 c 1,46,-1
 102 294 l 1,47,24
 125 370 125 370 162.5 410 c 128,-1,25
EndSplineSet
EndChar
StartChar: lessequal
Encoding: 8804 8804 320
Width: 632
GlyphClass: 1
Flags: W
LayerCount: 2
Fore
SplineSet
58 259 m 1,0,-1
 87 394 l 1,1,-1
 630 511 l 1,2,-1
 600 370 l 1,3,-1
 258 323 l 1,4,-1
 579 273 l 1,5,-1
 552 143 l 1,6,-1
 58 259 l 1,0,-1
32 136 m 1,7,-1
 551 136 l 1,8,-1
 522 0 l 1,9,-1
 3 0 l 1,10,-1
 32 136 l 1,7,-1
EndSplineSet
EndChar
StartChar: lozenge
Encoding: 9674 9674 334
Width: 632
GlyphClass: 1
Flags: W
LayerCount: 2
Fore
SplineSet
62 313 m 1,0,-1
 416 718 l 1,1,-1
 598 313 l 1,2,-1
 244 -94 l 1,3,-1
 62 313 l 1,0,-1
453 324 m 1,4,-1
 375 493 l 1,5,-1
 206 303 l 1,6,-1
 285 132 l 1,7,-1
 453 324 l 1,4,-1
EndSplineSet
EndChar
StartChar: acutecomb.case
Encoding: 65544 -1 343
Width: 0
GlyphClass: 4
Flags: W
AnchorPoint: "Anchor-5" 400 885 basemark 0
AnchorPoint: "Anchor-5" 354 668 mark 0
AnchorPoint: "Anchor-1" 354 668 mark 0
LayerCount: 2
Fore
SplineSet
475.5 877 m 128,-1,1
 493 886 493 886 514 886 c 0,2,3
 537 886 537 886 551 874 c 128,-1,4
 565 862 565 862 565 843 c 0,5,6
 565 820 565 820 551.5 803.5 c 128,-1,7
 538 787 538 787 514 772 c 2,8,-1
 445 729 l 1,9,-1
 304 729 l 1,10,-1
 435 848 l 2,11,0
 458 868 458 868 475.5 877 c 128,-1,1
EndSplineSet
EndChar
StartChar: gravecomb.case
Encoding: 65543 -1 341
Width: 0
GlyphClass: 4
Flags: W
AnchorPoint: "Anchor-5" 502 885 basemark 0
AnchorPoint: "Anchor-5" 456 668 mark 0
AnchorPoint: "Anchor-1" 456 668 mark 0
LayerCount: 2
Fore
SplineSet
330 794.5 m 128,-1,1
 324 805 324 805 324 817 c 0,2,3
 324 844 324 844 344 865 c 128,-1,4
 364 886 364 886 391 886 c 256,5,6
 418 886 418 886 443 848 c 2,7,-1
 522 729 l 1,8,-1
 401 729 l 1,9,-1
 350 772 l 2,10,0
 336 784 336 784 330 794.5 c 128,-1,1
EndSplineSet
EndChar
StartChar: uni0307.case
Encoding: 65541 -1 338
Width: 0
GlyphClass: 4
Flags: W
AnchorPoint: "Anchor-5" 449 875 basemark 0
AnchorPoint: "Anchor-5" 405 668 mark 0
AnchorPoint: "Anchor-1" 405 668 mark 0
LayerCount: 2
Fore
SplineSet
376.5 740.5 m 128,-1,1
 353 764 353 764 353 796 c 256,2,3
 353 828 353 828 376.5 851.5 c 128,-1,4
 400 875 400 875 432 875 c 256,5,6
 464 875 464 875 487.5 851.5 c 128,-1,7
 511 828 511 828 511 796 c 256,8,9
 511 764 511 764 487.5 740.5 c 128,-1,10
 464 717 464 717 432 717 c 256,11,0
 400 717 400 717 376.5 740.5 c 128,-1,1
EndSplineSet
EndChar
StartChar: uni030A.case
Encoding: 65550 -1 354
Width: 0
GlyphClass: 4
Flags: W
AnchorPoint: "Anchor-5" 447 865 basemark 0
AnchorPoint: "Anchor-5" 412 668 mark 0
AnchorPoint: "Anchor-1" 412 668 mark 0
LayerCount: 2
Fore
SplineSet
349 609.5 m 128,-1,1
 318 628 318 628 299.5 660 c 128,-1,2
 281 692 281 692 281 729 c 256,3,4
 281 766 281 766 299.5 797.5 c 128,-1,5
 318 829 318 829 349 847 c 128,-1,6
 380 865 380 865 417 865 c 256,7,8
 454 865 454 865 485.5 847 c 128,-1,9
 517 829 517 829 536 797.5 c 128,-1,10
 555 766 555 766 555 729 c 256,11,12
 555 692 555 692 536 660 c 128,-1,13
 517 628 517 628 485.5 609.5 c 128,-1,14
 454 591 454 591 417 591 c 256,15,0
 380 591 380 591 349 609.5 c 128,-1,1
451 695.5 m 128,-1,17
 464 709 464 709 464 728 c 0,18,19
 464 748 464 748 451 761 c 128,-1,20
 438 774 438 774 418 774 c 0,21,22
 399 774 399 774 385.5 760.5 c 128,-1,23
 372 747 372 747 372 728 c 256,24,25
 372 709 372 709 385.5 695.5 c 128,-1,26
 399 682 399 682 418 682 c 0,27,16
 438 682 438 682 451 695.5 c 128,-1,17
EndSplineSet
EndChar
